<mxfile host="Electron" modified="2024-12-09T15:36:31.286Z" agent="Mozilla/5.0 (Windows NT 10.0; Win64; x64) AppleWebKit/537.36 (KHTML, like Gecko) draw.io/24.2.5 Chrome/120.0.6099.109 Electron/28.1.0 Safari/537.36" etag="Ef4w6t4SCKfpKpUI4z6i" version="24.2.5" type="device" pages="4">
  <diagram name="ГУ" id="ugK82E-Oeq2IcZL6EhHe">
    <mxGraphModel dx="1590" dy="1095" grid="1" gridSize="10" guides="1" tooltips="1" connect="1" arrows="1" fold="1" page="1" pageScale="1" pageWidth="827" pageHeight="1169" math="0" shadow="0">
      <root>
        <mxCell id="0" />
        <mxCell id="1" parent="0" />
        <mxCell id="3rQZfTDaemAV0bIE6EKv-32" style="edgeStyle=orthogonalEdgeStyle;rounded=0;orthogonalLoop=1;jettySize=auto;html=1;exitX=0.5;exitY=1;exitDx=0;exitDy=0;entryX=0.5;entryY=0;entryDx=0;entryDy=0;" parent="1" source="3rQZfTDaemAV0bIE6EKv-1" target="3rQZfTDaemAV0bIE6EKv-3" edge="1">
          <mxGeometry relative="1" as="geometry" />
        </mxCell>
        <mxCell id="3rQZfTDaemAV0bIE6EKv-1" value="1" style="ellipse;whiteSpace=wrap;html=1;aspect=fixed;" parent="1" vertex="1">
          <mxGeometry x="60" width="70" height="70" as="geometry" />
        </mxCell>
        <mxCell id="3rQZfTDaemAV0bIE6EKv-33" style="edgeStyle=orthogonalEdgeStyle;rounded=0;orthogonalLoop=1;jettySize=auto;html=1;exitX=0.5;exitY=1;exitDx=0;exitDy=0;" parent="1" source="3rQZfTDaemAV0bIE6EKv-3" target="3rQZfTDaemAV0bIE6EKv-4" edge="1">
          <mxGeometry relative="1" as="geometry" />
        </mxCell>
        <mxCell id="3rQZfTDaemAV0bIE6EKv-3" value="2" style="ellipse;whiteSpace=wrap;html=1;aspect=fixed;" parent="1" vertex="1">
          <mxGeometry x="55" y="90" width="80" height="80" as="geometry" />
        </mxCell>
        <mxCell id="3rQZfTDaemAV0bIE6EKv-34" style="edgeStyle=orthogonalEdgeStyle;rounded=0;orthogonalLoop=1;jettySize=auto;html=1;exitX=0.5;exitY=1;exitDx=0;exitDy=0;entryX=0.5;entryY=0;entryDx=0;entryDy=0;" parent="1" source="3rQZfTDaemAV0bIE6EKv-4" target="3rQZfTDaemAV0bIE6EKv-5" edge="1">
          <mxGeometry relative="1" as="geometry" />
        </mxCell>
        <mxCell id="3rQZfTDaemAV0bIE6EKv-4" value="3" style="ellipse;whiteSpace=wrap;html=1;aspect=fixed;" parent="1" vertex="1">
          <mxGeometry x="60" y="200" width="70" height="70" as="geometry" />
        </mxCell>
        <mxCell id="3rQZfTDaemAV0bIE6EKv-35" style="edgeStyle=orthogonalEdgeStyle;rounded=0;orthogonalLoop=1;jettySize=auto;html=1;exitX=1;exitY=0;exitDx=0;exitDy=0;entryX=0;entryY=1;entryDx=0;entryDy=0;" parent="1" source="3rQZfTDaemAV0bIE6EKv-5" target="3rQZfTDaemAV0bIE6EKv-6" edge="1">
          <mxGeometry relative="1" as="geometry" />
        </mxCell>
        <mxCell id="3rQZfTDaemAV0bIE6EKv-5" value="4" style="ellipse;whiteSpace=wrap;html=1;aspect=fixed;" parent="1" vertex="1">
          <mxGeometry x="60" y="300" width="70" height="70" as="geometry" />
        </mxCell>
        <mxCell id="3rQZfTDaemAV0bIE6EKv-36" style="edgeStyle=orthogonalEdgeStyle;rounded=0;orthogonalLoop=1;jettySize=auto;html=1;exitX=1;exitY=0.5;exitDx=0;exitDy=0;entryX=0;entryY=0.5;entryDx=0;entryDy=0;" parent="1" source="3rQZfTDaemAV0bIE6EKv-6" target="3rQZfTDaemAV0bIE6EKv-7" edge="1">
          <mxGeometry relative="1" as="geometry" />
        </mxCell>
        <mxCell id="3rQZfTDaemAV0bIE6EKv-6" value="5" style="ellipse;whiteSpace=wrap;html=1;aspect=fixed;" parent="1" vertex="1">
          <mxGeometry x="60" y="400" width="70" height="70" as="geometry" />
        </mxCell>
        <mxCell id="3rQZfTDaemAV0bIE6EKv-47" style="edgeStyle=orthogonalEdgeStyle;rounded=0;orthogonalLoop=1;jettySize=auto;html=1;exitX=1;exitY=0.5;exitDx=0;exitDy=0;entryX=0;entryY=0.5;entryDx=0;entryDy=0;" parent="1" source="3rQZfTDaemAV0bIE6EKv-7" target="3rQZfTDaemAV0bIE6EKv-8" edge="1">
          <mxGeometry relative="1" as="geometry" />
        </mxCell>
        <mxCell id="3rQZfTDaemAV0bIE6EKv-7" value="6" style="ellipse;whiteSpace=wrap;html=1;aspect=fixed;" parent="1" vertex="1">
          <mxGeometry x="190" y="69.91999999999999" width="70" height="70" as="geometry" />
        </mxCell>
        <mxCell id="3rQZfTDaemAV0bIE6EKv-38" style="edgeStyle=orthogonalEdgeStyle;rounded=0;orthogonalLoop=1;jettySize=auto;html=1;exitX=1;exitY=0.5;exitDx=0;exitDy=0;entryX=0;entryY=0.5;entryDx=0;entryDy=0;" parent="1" source="3rQZfTDaemAV0bIE6EKv-8" target="3rQZfTDaemAV0bIE6EKv-9" edge="1">
          <mxGeometry relative="1" as="geometry" />
        </mxCell>
        <mxCell id="3rQZfTDaemAV0bIE6EKv-8" value="7" style="ellipse;whiteSpace=wrap;html=1;aspect=fixed;" parent="1" vertex="1">
          <mxGeometry x="200" y="170" width="70" height="70" as="geometry" />
        </mxCell>
        <mxCell id="3rQZfTDaemAV0bIE6EKv-39" style="edgeStyle=orthogonalEdgeStyle;rounded=0;orthogonalLoop=1;jettySize=auto;html=1;exitX=1;exitY=0.5;exitDx=0;exitDy=0;entryX=0;entryY=0.5;entryDx=0;entryDy=0;" parent="1" source="3rQZfTDaemAV0bIE6EKv-9" target="3rQZfTDaemAV0bIE6EKv-10" edge="1">
          <mxGeometry relative="1" as="geometry" />
        </mxCell>
        <mxCell id="3rQZfTDaemAV0bIE6EKv-9" value="8" style="ellipse;whiteSpace=wrap;html=1;aspect=fixed;" parent="1" vertex="1">
          <mxGeometry x="200" y="290" width="70" height="70" as="geometry" />
        </mxCell>
        <mxCell id="3rQZfTDaemAV0bIE6EKv-40" style="edgeStyle=orthogonalEdgeStyle;rounded=0;orthogonalLoop=1;jettySize=auto;html=1;exitX=1;exitY=0.5;exitDx=0;exitDy=0;entryX=0;entryY=0.5;entryDx=0;entryDy=0;" parent="1" source="3rQZfTDaemAV0bIE6EKv-10" target="3rQZfTDaemAV0bIE6EKv-11" edge="1">
          <mxGeometry relative="1" as="geometry" />
        </mxCell>
        <mxCell id="3rQZfTDaemAV0bIE6EKv-10" value="9&lt;span style=&quot;color: rgba(0, 0, 0, 0); font-family: monospace; font-size: 0px; text-align: start; text-wrap: nowrap;&quot;&gt;%3CmxGraphModel%3E%3Croot%3E%3CmxCell%20id%3D%220%22%2F%3E%3CmxCell%20id%3D%221%22%20parent%3D%220%22%2F%3E%3CmxCell%20id%3D%222%22%20value%3D%221%22%20style%3D%22ellipse%3BwhiteSpace%3Dwrap%3Bhtml%3D1%3Baspect%3Dfixed%3B%22%20vertex%3D%221%22%20parent%3D%221%22%3E%3CmxGeometry%20x%3D%2270%22%20y%3D%2250%22%20width%3D%2270%22%20height%3D%2270%22%20as%3D%22geometry%22%2F%3E%3C%2FmxCell%3E%3C%2Froot%3E%3C%2FmxGraphModel%3E&lt;/span&gt;" style="ellipse;whiteSpace=wrap;html=1;aspect=fixed;" parent="1" vertex="1">
          <mxGeometry x="200" y="400" width="70" height="70" as="geometry" />
        </mxCell>
        <mxCell id="3rQZfTDaemAV0bIE6EKv-41" style="edgeStyle=orthogonalEdgeStyle;rounded=0;orthogonalLoop=1;jettySize=auto;html=1;exitX=1;exitY=0.5;exitDx=0;exitDy=0;entryX=0;entryY=0.5;entryDx=0;entryDy=0;" parent="1" source="3rQZfTDaemAV0bIE6EKv-11" target="3rQZfTDaemAV0bIE6EKv-12" edge="1">
          <mxGeometry relative="1" as="geometry" />
        </mxCell>
        <mxCell id="3rQZfTDaemAV0bIE6EKv-46" style="edgeStyle=orthogonalEdgeStyle;rounded=0;orthogonalLoop=1;jettySize=auto;html=1;exitX=1;exitY=0;exitDx=0;exitDy=0;entryX=0;entryY=0;entryDx=0;entryDy=0;" parent="1" source="3rQZfTDaemAV0bIE6EKv-11" target="3rQZfTDaemAV0bIE6EKv-16" edge="1">
          <mxGeometry relative="1" as="geometry">
            <Array as="points">
              <mxPoint x="360" y="510" />
              <mxPoint x="360" y="890" />
              <mxPoint x="370" y="890" />
            </Array>
          </mxGeometry>
        </mxCell>
        <mxCell id="3rQZfTDaemAV0bIE6EKv-11" value="10" style="ellipse;whiteSpace=wrap;html=1;aspect=fixed;" parent="1" vertex="1">
          <mxGeometry x="200" y="500" width="70" height="70" as="geometry" />
        </mxCell>
        <mxCell id="3rQZfTDaemAV0bIE6EKv-42" style="edgeStyle=orthogonalEdgeStyle;rounded=0;orthogonalLoop=1;jettySize=auto;html=1;exitX=1;exitY=0.5;exitDx=0;exitDy=0;entryX=0;entryY=0.5;entryDx=0;entryDy=0;" parent="1" source="3rQZfTDaemAV0bIE6EKv-12" target="3rQZfTDaemAV0bIE6EKv-13" edge="1">
          <mxGeometry relative="1" as="geometry" />
        </mxCell>
        <mxCell id="3rQZfTDaemAV0bIE6EKv-12" value="11" style="ellipse;whiteSpace=wrap;html=1;aspect=fixed;" parent="1" vertex="1">
          <mxGeometry x="220" y="630" width="60" height="60" as="geometry" />
        </mxCell>
        <mxCell id="3rQZfTDaemAV0bIE6EKv-43" style="edgeStyle=orthogonalEdgeStyle;rounded=0;orthogonalLoop=1;jettySize=auto;html=1;exitX=1;exitY=0.5;exitDx=0;exitDy=0;entryX=0;entryY=0.5;entryDx=0;entryDy=0;" parent="1" source="3rQZfTDaemAV0bIE6EKv-13" target="3rQZfTDaemAV0bIE6EKv-14" edge="1">
          <mxGeometry relative="1" as="geometry" />
        </mxCell>
        <mxCell id="3rQZfTDaemAV0bIE6EKv-13" value="12" style="ellipse;whiteSpace=wrap;html=1;aspect=fixed;" parent="1" vertex="1">
          <mxGeometry x="220" y="720" width="80" height="80" as="geometry" />
        </mxCell>
        <mxCell id="3rQZfTDaemAV0bIE6EKv-44" style="edgeStyle=orthogonalEdgeStyle;rounded=0;orthogonalLoop=1;jettySize=auto;html=1;exitX=1;exitY=0.5;exitDx=0;exitDy=0;" parent="1" source="3rQZfTDaemAV0bIE6EKv-14" target="3rQZfTDaemAV0bIE6EKv-15" edge="1">
          <mxGeometry relative="1" as="geometry" />
        </mxCell>
        <mxCell id="3rQZfTDaemAV0bIE6EKv-14" value="13" style="ellipse;whiteSpace=wrap;html=1;aspect=fixed;" parent="1" vertex="1">
          <mxGeometry x="230" y="820" width="70" height="70" as="geometry" />
        </mxCell>
        <mxCell id="3rQZfTDaemAV0bIE6EKv-45" style="edgeStyle=orthogonalEdgeStyle;rounded=0;orthogonalLoop=1;jettySize=auto;html=1;exitX=1;exitY=0.5;exitDx=0;exitDy=0;entryX=0;entryY=0.5;entryDx=0;entryDy=0;" parent="1" source="3rQZfTDaemAV0bIE6EKv-15" target="3rQZfTDaemAV0bIE6EKv-16" edge="1">
          <mxGeometry relative="1" as="geometry" />
        </mxCell>
        <mxCell id="3rQZfTDaemAV0bIE6EKv-15" value="14" style="ellipse;whiteSpace=wrap;html=1;aspect=fixed;" parent="1" vertex="1">
          <mxGeometry x="225" y="930" width="70" height="70" as="geometry" />
        </mxCell>
        <mxCell id="3rQZfTDaemAV0bIE6EKv-48" style="edgeStyle=orthogonalEdgeStyle;rounded=0;orthogonalLoop=1;jettySize=auto;html=1;exitX=0.5;exitY=0;exitDx=0;exitDy=0;entryX=0.5;entryY=0;entryDx=0;entryDy=0;" parent="1" source="3rQZfTDaemAV0bIE6EKv-16" target="3rQZfTDaemAV0bIE6EKv-7" edge="1">
          <mxGeometry relative="1" as="geometry" />
        </mxCell>
        <mxCell id="3rQZfTDaemAV0bIE6EKv-49" style="edgeStyle=orthogonalEdgeStyle;rounded=0;orthogonalLoop=1;jettySize=auto;html=1;exitX=1;exitY=0.5;exitDx=0;exitDy=0;entryX=0;entryY=0.5;entryDx=0;entryDy=0;" parent="1" source="3rQZfTDaemAV0bIE6EKv-16" target="3rQZfTDaemAV0bIE6EKv-17" edge="1">
          <mxGeometry relative="1" as="geometry">
            <Array as="points">
              <mxPoint x="430" y="995" />
              <mxPoint x="450" y="995" />
              <mxPoint x="450" y="120" />
            </Array>
          </mxGeometry>
        </mxCell>
        <mxCell id="3rQZfTDaemAV0bIE6EKv-16" value="15" style="ellipse;whiteSpace=wrap;html=1;aspect=fixed;" parent="1" vertex="1">
          <mxGeometry x="360" y="970" width="70" height="70" as="geometry" />
        </mxCell>
        <mxCell id="3rQZfTDaemAV0bIE6EKv-50" style="edgeStyle=orthogonalEdgeStyle;rounded=0;orthogonalLoop=1;jettySize=auto;html=1;exitX=0.5;exitY=1;exitDx=0;exitDy=0;entryX=0.5;entryY=0;entryDx=0;entryDy=0;" parent="1" source="3rQZfTDaemAV0bIE6EKv-17" target="3rQZfTDaemAV0bIE6EKv-18" edge="1">
          <mxGeometry relative="1" as="geometry" />
        </mxCell>
        <mxCell id="3rQZfTDaemAV0bIE6EKv-17" value="16" style="ellipse;whiteSpace=wrap;html=1;aspect=fixed;" parent="1" vertex="1">
          <mxGeometry x="500.0000000000001" y="84.99999999999999" width="70" height="70" as="geometry" />
        </mxCell>
        <mxCell id="3rQZfTDaemAV0bIE6EKv-51" style="edgeStyle=orthogonalEdgeStyle;rounded=0;orthogonalLoop=1;jettySize=auto;html=1;exitX=0.5;exitY=1;exitDx=0;exitDy=0;entryX=0.5;entryY=0;entryDx=0;entryDy=0;" parent="1" source="3rQZfTDaemAV0bIE6EKv-18" target="3rQZfTDaemAV0bIE6EKv-19" edge="1">
          <mxGeometry relative="1" as="geometry" />
        </mxCell>
        <mxCell id="3rQZfTDaemAV0bIE6EKv-18" value="17" style="ellipse;whiteSpace=wrap;html=1;aspect=fixed;" parent="1" vertex="1">
          <mxGeometry x="500.0000000000001" y="170" width="70" height="70" as="geometry" />
        </mxCell>
        <mxCell id="3rQZfTDaemAV0bIE6EKv-52" style="edgeStyle=orthogonalEdgeStyle;rounded=0;orthogonalLoop=1;jettySize=auto;html=1;exitX=0;exitY=0.5;exitDx=0;exitDy=0;entryX=1;entryY=0.5;entryDx=0;entryDy=0;" parent="1" source="3rQZfTDaemAV0bIE6EKv-19" target="3rQZfTDaemAV0bIE6EKv-20" edge="1">
          <mxGeometry relative="1" as="geometry" />
        </mxCell>
        <mxCell id="3rQZfTDaemAV0bIE6EKv-19" value="18" style="ellipse;whiteSpace=wrap;html=1;aspect=fixed;" parent="1" vertex="1">
          <mxGeometry x="500.0000000000001" y="260" width="70" height="70" as="geometry" />
        </mxCell>
        <mxCell id="3rQZfTDaemAV0bIE6EKv-53" style="edgeStyle=orthogonalEdgeStyle;rounded=0;orthogonalLoop=1;jettySize=auto;html=1;exitX=0;exitY=0.5;exitDx=0;exitDy=0;entryX=1;entryY=0.5;entryDx=0;entryDy=0;" parent="1" source="3rQZfTDaemAV0bIE6EKv-20" target="3rQZfTDaemAV0bIE6EKv-21" edge="1">
          <mxGeometry relative="1" as="geometry" />
        </mxCell>
        <mxCell id="3rQZfTDaemAV0bIE6EKv-20" value="19&lt;span style=&quot;color: rgba(0, 0, 0, 0); font-family: monospace; font-size: 0px; text-align: start; text-wrap: nowrap;&quot;&gt;%3CmxGraphModel%3E%3Croot%3E%3CmxCell%20id%3D%220%22%2F%3E%3CmxCell%20id%3D%221%22%20parent%3D%220%22%2F%3E%3CmxCell%20id%3D%222%22%20value%3D%221%22%20style%3D%22ellipse%3BwhiteSpace%3Dwrap%3Bhtml%3D1%3Baspect%3Dfixed%3B%22%20vertex%3D%221%22%20parent%3D%221%22%3E%3CmxGeometry%20x%3D%2270%22%20y%3D%2250%22%20width%3D%2270%22%20height%3D%2270%22%20as%3D%22geometry%22%2F%3E%3C%2FmxCell%3E%3C%2Froot%3E%3C%2FmxGraphModel%3E&lt;/span&gt;" style="ellipse;whiteSpace=wrap;html=1;aspect=fixed;" parent="1" vertex="1">
          <mxGeometry x="500.0000000000001" y="360" width="70" height="70" as="geometry" />
        </mxCell>
        <mxCell id="3rQZfTDaemAV0bIE6EKv-54" style="edgeStyle=orthogonalEdgeStyle;rounded=0;orthogonalLoop=1;jettySize=auto;html=1;exitX=0.5;exitY=1;exitDx=0;exitDy=0;entryX=0.5;entryY=0;entryDx=0;entryDy=0;" parent="1" source="3rQZfTDaemAV0bIE6EKv-21" target="3rQZfTDaemAV0bIE6EKv-22" edge="1">
          <mxGeometry relative="1" as="geometry" />
        </mxCell>
        <mxCell id="3rQZfTDaemAV0bIE6EKv-21" value="2&lt;span style=&quot;background-color: initial;&quot;&gt;0&lt;/span&gt;" style="ellipse;whiteSpace=wrap;html=1;aspect=fixed;" parent="1" vertex="1">
          <mxGeometry x="499.90999999999997" y="470" width="70" height="70" as="geometry" />
        </mxCell>
        <mxCell id="3rQZfTDaemAV0bIE6EKv-55" style="edgeStyle=orthogonalEdgeStyle;rounded=0;orthogonalLoop=1;jettySize=auto;html=1;exitX=0.5;exitY=1;exitDx=0;exitDy=0;" parent="1" source="3rQZfTDaemAV0bIE6EKv-22" target="3rQZfTDaemAV0bIE6EKv-23" edge="1">
          <mxGeometry relative="1" as="geometry" />
        </mxCell>
        <mxCell id="3rQZfTDaemAV0bIE6EKv-58" style="edgeStyle=orthogonalEdgeStyle;rounded=0;orthogonalLoop=1;jettySize=auto;html=1;exitX=1;exitY=0.5;exitDx=0;exitDy=0;" parent="1" source="3rQZfTDaemAV0bIE6EKv-22" target="3rQZfTDaemAV0bIE6EKv-25" edge="1">
          <mxGeometry relative="1" as="geometry" />
        </mxCell>
        <mxCell id="3rQZfTDaemAV0bIE6EKv-22" value="21" style="ellipse;whiteSpace=wrap;html=1;aspect=fixed;" parent="1" vertex="1">
          <mxGeometry x="499.90999999999997" y="560" width="70" height="70" as="geometry" />
        </mxCell>
        <mxCell id="3rQZfTDaemAV0bIE6EKv-56" style="edgeStyle=orthogonalEdgeStyle;rounded=0;orthogonalLoop=1;jettySize=auto;html=1;exitX=0.5;exitY=1;exitDx=0;exitDy=0;entryX=0.5;entryY=0;entryDx=0;entryDy=0;" parent="1" source="3rQZfTDaemAV0bIE6EKv-23" target="3rQZfTDaemAV0bIE6EKv-24" edge="1">
          <mxGeometry relative="1" as="geometry" />
        </mxCell>
        <mxCell id="3rQZfTDaemAV0bIE6EKv-23" value="22" style="ellipse;whiteSpace=wrap;html=1;aspect=fixed;" parent="1" vertex="1">
          <mxGeometry x="494.90999999999997" y="655" width="80" height="80" as="geometry" />
        </mxCell>
        <mxCell id="3rQZfTDaemAV0bIE6EKv-57" style="edgeStyle=orthogonalEdgeStyle;rounded=0;orthogonalLoop=1;jettySize=auto;html=1;exitX=0;exitY=0.5;exitDx=0;exitDy=0;entryX=0;entryY=0.5;entryDx=0;entryDy=0;" parent="1" source="3rQZfTDaemAV0bIE6EKv-24" target="3rQZfTDaemAV0bIE6EKv-22" edge="1">
          <mxGeometry relative="1" as="geometry" />
        </mxCell>
        <mxCell id="3rQZfTDaemAV0bIE6EKv-24" value="23" style="ellipse;whiteSpace=wrap;html=1;aspect=fixed;" parent="1" vertex="1">
          <mxGeometry x="504.90999999999997" y="760" width="70" height="70" as="geometry" />
        </mxCell>
        <mxCell id="3rQZfTDaemAV0bIE6EKv-59" style="edgeStyle=orthogonalEdgeStyle;rounded=0;orthogonalLoop=1;jettySize=auto;html=1;exitX=1;exitY=0.5;exitDx=0;exitDy=0;entryX=0;entryY=0.5;entryDx=0;entryDy=0;" parent="1" source="3rQZfTDaemAV0bIE6EKv-25" target="3rQZfTDaemAV0bIE6EKv-26" edge="1">
          <mxGeometry relative="1" as="geometry" />
        </mxCell>
        <mxCell id="3rQZfTDaemAV0bIE6EKv-25" value="24" style="ellipse;whiteSpace=wrap;html=1;aspect=fixed;" parent="1" vertex="1">
          <mxGeometry x="669.9100000000001" y="565" width="70" height="70" as="geometry" />
        </mxCell>
        <mxCell id="3rQZfTDaemAV0bIE6EKv-26" value="25" style="ellipse;whiteSpace=wrap;html=1;aspect=fixed;" parent="1" vertex="1">
          <mxGeometry x="669.9100000000001" y="690" width="70" height="70" as="geometry" />
        </mxCell>
        <mxCell id="3rQZfTDaemAV0bIE6EKv-61" style="edgeStyle=orthogonalEdgeStyle;rounded=0;orthogonalLoop=1;jettySize=auto;html=1;exitX=1;exitY=0.5;exitDx=0;exitDy=0;" parent="1" source="3rQZfTDaemAV0bIE6EKv-27" target="3rQZfTDaemAV0bIE6EKv-28" edge="1">
          <mxGeometry relative="1" as="geometry" />
        </mxCell>
        <mxCell id="3rQZfTDaemAV0bIE6EKv-27" value="26" style="ellipse;whiteSpace=wrap;html=1;aspect=fixed;" parent="1" vertex="1">
          <mxGeometry x="660" y="800" width="70" height="70" as="geometry" />
        </mxCell>
        <mxCell id="3rQZfTDaemAV0bIE6EKv-28" value="27" style="ellipse;whiteSpace=wrap;html=1;aspect=fixed;" parent="1" vertex="1">
          <mxGeometry x="660" y="930" width="70" height="70" as="geometry" />
        </mxCell>
        <mxCell id="3rQZfTDaemAV0bIE6EKv-60" style="edgeStyle=orthogonalEdgeStyle;rounded=0;orthogonalLoop=1;jettySize=auto;html=1;exitX=1;exitY=0.5;exitDx=0;exitDy=0;entryX=-0.016;entryY=0.595;entryDx=0;entryDy=0;entryPerimeter=0;" parent="1" source="3rQZfTDaemAV0bIE6EKv-26" target="3rQZfTDaemAV0bIE6EKv-27" edge="1">
          <mxGeometry relative="1" as="geometry" />
        </mxCell>
        <mxCell id="C5f7tuQHX21csSSXEdko-1" value="&lt;font style=&quot;font-size: 40px;&quot;&gt;ГУ&lt;/font&gt;" style="text;html=1;align=center;verticalAlign=middle;resizable=0;points=[];autosize=1;strokeColor=none;fillColor=none;" vertex="1" parent="1">
          <mxGeometry x="690" y="40" width="70" height="60" as="geometry" />
        </mxCell>
      </root>
    </mxGraphModel>
  </diagram>
  <diagram id="Dmtn8zUj1SzdXv8H1yFz" name="ИГ">
    <mxGraphModel dx="1735" dy="1195" grid="1" gridSize="10" guides="1" tooltips="1" connect="1" arrows="1" fold="1" page="1" pageScale="1" pageWidth="827" pageHeight="1169" math="0" shadow="0">
      <root>
        <mxCell id="0" />
        <mxCell id="1" parent="0" />
        <mxCell id="x_Lu6wWpHjOFr1CL_qaY-2" value="1" style="ellipse;whiteSpace=wrap;html=1;aspect=fixed;" parent="1" vertex="1">
          <mxGeometry x="20" y="50" width="70" height="70" as="geometry" />
        </mxCell>
        <mxCell id="x_Lu6wWpHjOFr1CL_qaY-59" style="edgeStyle=orthogonalEdgeStyle;rounded=0;orthogonalLoop=1;jettySize=auto;html=1;exitX=0.5;exitY=1;exitDx=0;exitDy=0;" parent="1" source="x_Lu6wWpHjOFr1CL_qaY-4" target="x_Lu6wWpHjOFr1CL_qaY-6" edge="1">
          <mxGeometry relative="1" as="geometry" />
        </mxCell>
        <mxCell id="x_Lu6wWpHjOFr1CL_qaY-60" value="t_beg" style="edgeLabel;html=1;align=center;verticalAlign=middle;resizable=0;points=[];" parent="x_Lu6wWpHjOFr1CL_qaY-59" vertex="1" connectable="0">
          <mxGeometry x="-0.2885" y="2" relative="1" as="geometry">
            <mxPoint x="23" as="offset" />
          </mxGeometry>
        </mxCell>
        <mxCell id="x_Lu6wWpHjOFr1CL_qaY-4" value="2" style="ellipse;whiteSpace=wrap;html=1;aspect=fixed;" parent="1" vertex="1">
          <mxGeometry x="10" y="130" width="80" height="80" as="geometry" />
        </mxCell>
        <mxCell id="x_Lu6wWpHjOFr1CL_qaY-62" style="edgeStyle=orthogonalEdgeStyle;rounded=0;orthogonalLoop=1;jettySize=auto;html=1;exitX=0.5;exitY=1;exitDx=0;exitDy=0;entryX=0.5;entryY=0;entryDx=0;entryDy=0;" parent="1" source="x_Lu6wWpHjOFr1CL_qaY-6" target="x_Lu6wWpHjOFr1CL_qaY-8" edge="1">
          <mxGeometry relative="1" as="geometry" />
        </mxCell>
        <mxCell id="x_Lu6wWpHjOFr1CL_qaY-64" value="filename" style="edgeLabel;html=1;align=center;verticalAlign=middle;resizable=0;points=[];" parent="x_Lu6wWpHjOFr1CL_qaY-62" vertex="1" connectable="0">
          <mxGeometry x="-0.3033" y="1" relative="1" as="geometry">
            <mxPoint as="offset" />
          </mxGeometry>
        </mxCell>
        <mxCell id="x_Lu6wWpHjOFr1CL_qaY-6" value="3" style="ellipse;whiteSpace=wrap;html=1;aspect=fixed;" parent="1" vertex="1">
          <mxGeometry x="15" y="240" width="70" height="70" as="geometry" />
        </mxCell>
        <mxCell id="x_Lu6wWpHjOFr1CL_qaY-8" value="4" style="ellipse;whiteSpace=wrap;html=1;aspect=fixed;" parent="1" vertex="1">
          <mxGeometry x="15" y="360" width="70" height="70" as="geometry" />
        </mxCell>
        <mxCell id="x_Lu6wWpHjOFr1CL_qaY-63" style="edgeStyle=orthogonalEdgeStyle;rounded=0;orthogonalLoop=1;jettySize=auto;html=1;exitX=1;exitY=0.5;exitDx=0;exitDy=0;" parent="1" source="x_Lu6wWpHjOFr1CL_qaY-10" target="x_Lu6wWpHjOFr1CL_qaY-12" edge="1">
          <mxGeometry relative="1" as="geometry" />
        </mxCell>
        <mxCell id="x_Lu6wWpHjOFr1CL_qaY-65" value="get_elem&lt;div&gt;&lt;br&gt;&lt;/div&gt;" style="edgeLabel;html=1;align=center;verticalAlign=middle;resizable=0;points=[];" parent="x_Lu6wWpHjOFr1CL_qaY-63" vertex="1" connectable="0">
          <mxGeometry x="-0.05" relative="1" as="geometry">
            <mxPoint y="-20" as="offset" />
          </mxGeometry>
        </mxCell>
        <mxCell id="x_Lu6wWpHjOFr1CL_qaY-75" style="edgeStyle=orthogonalEdgeStyle;rounded=0;orthogonalLoop=1;jettySize=auto;html=1;exitX=0.5;exitY=1;exitDx=0;exitDy=0;entryX=0;entryY=0.5;entryDx=0;entryDy=0;" parent="1" source="x_Lu6wWpHjOFr1CL_qaY-10" target="x_Lu6wWpHjOFr1CL_qaY-29" edge="1">
          <mxGeometry relative="1" as="geometry" />
        </mxCell>
        <mxCell id="x_Lu6wWpHjOFr1CL_qaY-76" value="get_elem" style="edgeLabel;html=1;align=center;verticalAlign=middle;resizable=0;points=[];" parent="x_Lu6wWpHjOFr1CL_qaY-75" vertex="1" connectable="0">
          <mxGeometry x="0.602" y="1" relative="1" as="geometry">
            <mxPoint as="offset" />
          </mxGeometry>
        </mxCell>
        <mxCell id="x_Lu6wWpHjOFr1CL_qaY-10" value="5" style="ellipse;whiteSpace=wrap;html=1;aspect=fixed;" parent="1" vertex="1">
          <mxGeometry x="140" y="30" width="70" height="70" as="geometry" />
        </mxCell>
        <mxCell id="x_Lu6wWpHjOFr1CL_qaY-12" value="6" style="ellipse;whiteSpace=wrap;html=1;aspect=fixed;" parent="1" vertex="1">
          <mxGeometry x="260" y="30" width="70" height="70" as="geometry" />
        </mxCell>
        <mxCell id="x_Lu6wWpHjOFr1CL_qaY-14" value="7" style="ellipse;whiteSpace=wrap;html=1;aspect=fixed;" parent="1" vertex="1">
          <mxGeometry x="140" y="200" width="70" height="70" as="geometry" />
        </mxCell>
        <mxCell id="x_Lu6wWpHjOFr1CL_qaY-68" style="edgeStyle=orthogonalEdgeStyle;rounded=0;orthogonalLoop=1;jettySize=auto;html=1;exitX=1;exitY=0.5;exitDx=0;exitDy=0;entryX=0;entryY=0.5;entryDx=0;entryDy=0;" parent="1" source="x_Lu6wWpHjOFr1CL_qaY-16" target="x_Lu6wWpHjOFr1CL_qaY-18" edge="1">
          <mxGeometry relative="1" as="geometry" />
        </mxCell>
        <mxCell id="x_Lu6wWpHjOFr1CL_qaY-69" value="t_beg" style="edgeLabel;html=1;align=center;verticalAlign=middle;resizable=0;points=[];" parent="x_Lu6wWpHjOFr1CL_qaY-68" vertex="1" connectable="0">
          <mxGeometry x="-0.131" y="-2" relative="1" as="geometry">
            <mxPoint as="offset" />
          </mxGeometry>
        </mxCell>
        <mxCell id="x_Lu6wWpHjOFr1CL_qaY-95" style="edgeStyle=orthogonalEdgeStyle;rounded=0;orthogonalLoop=1;jettySize=auto;html=1;exitX=0.5;exitY=0;exitDx=0;exitDy=0;entryX=0;entryY=0.5;entryDx=0;entryDy=0;" parent="1" source="x_Lu6wWpHjOFr1CL_qaY-16" target="x_Lu6wWpHjOFr1CL_qaY-52" edge="1">
          <mxGeometry relative="1" as="geometry" />
        </mxCell>
        <mxCell id="x_Lu6wWpHjOFr1CL_qaY-96" value="t_beg&lt;div&gt;&lt;br&gt;&lt;/div&gt;" style="edgeLabel;html=1;align=center;verticalAlign=middle;resizable=0;points=[];" parent="x_Lu6wWpHjOFr1CL_qaY-95" vertex="1" connectable="0">
          <mxGeometry x="0.8602" y="3" relative="1" as="geometry">
            <mxPoint as="offset" />
          </mxGeometry>
        </mxCell>
        <mxCell id="x_Lu6wWpHjOFr1CL_qaY-16" value="8" style="ellipse;whiteSpace=wrap;html=1;aspect=fixed;" parent="1" vertex="1">
          <mxGeometry x="280" y="1000" width="70" height="70" as="geometry" />
        </mxCell>
        <mxCell id="x_Lu6wWpHjOFr1CL_qaY-17" style="edgeStyle=orthogonalEdgeStyle;rounded=0;orthogonalLoop=1;jettySize=auto;html=1;exitX=1;exitY=0.5;exitDx=0;exitDy=0;entryX=0;entryY=0.5;entryDx=0;entryDy=0;" parent="1" source="x_Lu6wWpHjOFr1CL_qaY-18" target="x_Lu6wWpHjOFr1CL_qaY-21" edge="1">
          <mxGeometry relative="1" as="geometry" />
        </mxCell>
        <mxCell id="x_Lu6wWpHjOFr1CL_qaY-70" value="filename" style="edgeLabel;html=1;align=center;verticalAlign=middle;resizable=0;points=[];" parent="x_Lu6wWpHjOFr1CL_qaY-17" vertex="1" connectable="0">
          <mxGeometry x="0.2692" y="-2" relative="1" as="geometry">
            <mxPoint as="offset" />
          </mxGeometry>
        </mxCell>
        <mxCell id="x_Lu6wWpHjOFr1CL_qaY-18" value="9&lt;span style=&quot;color: rgba(0, 0, 0, 0); font-family: monospace; font-size: 0px; text-align: start; text-wrap: nowrap;&quot;&gt;%3CmxGraphModel%3E%3Croot%3E%3CmxCell%20id%3D%220%22%2F%3E%3CmxCell%20id%3D%221%22%20parent%3D%220%22%2F%3E%3CmxCell%20id%3D%222%22%20value%3D%221%22%20style%3D%22ellipse%3BwhiteSpace%3Dwrap%3Bhtml%3D1%3Baspect%3Dfixed%3B%22%20vertex%3D%221%22%20parent%3D%221%22%3E%3CmxGeometry%20x%3D%2270%22%20y%3D%2250%22%20width%3D%2270%22%20height%3D%2270%22%20as%3D%22geometry%22%2F%3E%3C%2FmxCell%3E%3C%2Froot%3E%3C%2FmxGraphModel%3E&lt;/span&gt;" style="ellipse;whiteSpace=wrap;html=1;aspect=fixed;" parent="1" vertex="1">
          <mxGeometry x="420" y="1000" width="70" height="70" as="geometry" />
        </mxCell>
        <mxCell id="x_Lu6wWpHjOFr1CL_qaY-21" value="10" style="ellipse;whiteSpace=wrap;html=1;aspect=fixed;" parent="1" vertex="1">
          <mxGeometry x="550" y="1005" width="70" height="70" as="geometry" />
        </mxCell>
        <mxCell id="x_Lu6wWpHjOFr1CL_qaY-23" value="11" style="ellipse;whiteSpace=wrap;html=1;aspect=fixed;" parent="1" vertex="1">
          <mxGeometry x="385" y="120" width="70" height="70" as="geometry" />
        </mxCell>
        <mxCell id="x_Lu6wWpHjOFr1CL_qaY-24" style="edgeStyle=orthogonalEdgeStyle;rounded=0;orthogonalLoop=1;jettySize=auto;html=1;exitX=0.5;exitY=1;exitDx=0;exitDy=0;entryX=0.5;entryY=0;entryDx=0;entryDy=0;" parent="1" source="x_Lu6wWpHjOFr1CL_qaY-71" target="x_Lu6wWpHjOFr1CL_qaY-27" edge="1">
          <mxGeometry relative="1" as="geometry">
            <Array as="points">
              <mxPoint x="610" y="90" />
              <mxPoint x="610" y="125" />
            </Array>
          </mxGeometry>
        </mxCell>
        <mxCell id="x_Lu6wWpHjOFr1CL_qaY-81" style="edgeStyle=orthogonalEdgeStyle;rounded=0;orthogonalLoop=1;jettySize=auto;html=1;exitX=0.5;exitY=1;exitDx=0;exitDy=0;entryX=0;entryY=0.5;entryDx=0;entryDy=0;" parent="1" source="x_Lu6wWpHjOFr1CL_qaY-25" target="x_Lu6wWpHjOFr1CL_qaY-40" edge="1">
          <mxGeometry relative="1" as="geometry" />
        </mxCell>
        <mxCell id="x_Lu6wWpHjOFr1CL_qaY-89" value="ind_group" style="edgeLabel;html=1;align=center;verticalAlign=middle;resizable=0;points=[];" parent="x_Lu6wWpHjOFr1CL_qaY-81" vertex="1" connectable="0">
          <mxGeometry x="0.1078" y="1" relative="1" as="geometry">
            <mxPoint as="offset" />
          </mxGeometry>
        </mxCell>
        <mxCell id="x_Lu6wWpHjOFr1CL_qaY-82" style="edgeStyle=orthogonalEdgeStyle;rounded=0;orthogonalLoop=1;jettySize=auto;html=1;exitX=0.5;exitY=1;exitDx=0;exitDy=0;entryX=0;entryY=0.5;entryDx=0;entryDy=0;" parent="1" source="x_Lu6wWpHjOFr1CL_qaY-25" target="x_Lu6wWpHjOFr1CL_qaY-45" edge="1">
          <mxGeometry relative="1" as="geometry" />
        </mxCell>
        <mxCell id="x_Lu6wWpHjOFr1CL_qaY-90" value="ind_group" style="edgeLabel;html=1;align=center;verticalAlign=middle;resizable=0;points=[];" parent="x_Lu6wWpHjOFr1CL_qaY-82" vertex="1" connectable="0">
          <mxGeometry x="0.5309" y="-1" relative="1" as="geometry">
            <mxPoint as="offset" />
          </mxGeometry>
        </mxCell>
        <mxCell id="x_Lu6wWpHjOFr1CL_qaY-25" value="12" style="ellipse;whiteSpace=wrap;html=1;aspect=fixed;" parent="1" vertex="1">
          <mxGeometry x="470" y="120" width="80" height="80" as="geometry" />
        </mxCell>
        <mxCell id="x_Lu6wWpHjOFr1CL_qaY-27" value="13" style="ellipse;whiteSpace=wrap;html=1;aspect=fixed;" parent="1" vertex="1">
          <mxGeometry x="580" y="130" width="70" height="70" as="geometry" />
        </mxCell>
        <mxCell id="x_Lu6wWpHjOFr1CL_qaY-29" value="14" style="ellipse;whiteSpace=wrap;html=1;aspect=fixed;" parent="1" vertex="1">
          <mxGeometry x="240" y="120" width="70" height="70" as="geometry" />
        </mxCell>
        <mxCell id="x_Lu6wWpHjOFr1CL_qaY-32" value="15" style="ellipse;whiteSpace=wrap;html=1;aspect=fixed;" parent="1" vertex="1">
          <mxGeometry x="230" y="200" width="70" height="70" as="geometry" />
        </mxCell>
        <mxCell id="x_Lu6wWpHjOFr1CL_qaY-33" style="edgeStyle=orthogonalEdgeStyle;rounded=0;orthogonalLoop=1;jettySize=auto;html=1;exitX=0.5;exitY=1;exitDx=0;exitDy=0;entryX=0.5;entryY=0;entryDx=0;entryDy=0;" parent="1" source="x_Lu6wWpHjOFr1CL_qaY-34" target="x_Lu6wWpHjOFr1CL_qaY-36" edge="1">
          <mxGeometry relative="1" as="geometry" />
        </mxCell>
        <mxCell id="x_Lu6wWpHjOFr1CL_qaY-77" value="filename" style="edgeLabel;html=1;align=center;verticalAlign=middle;resizable=0;points=[];" parent="x_Lu6wWpHjOFr1CL_qaY-33" vertex="1" connectable="0">
          <mxGeometry x="-0.0265" y="4" relative="1" as="geometry">
            <mxPoint as="offset" />
          </mxGeometry>
        </mxCell>
        <mxCell id="x_Lu6wWpHjOFr1CL_qaY-34" value="16" style="ellipse;whiteSpace=wrap;html=1;aspect=fixed;" parent="1" vertex="1">
          <mxGeometry x="180" y="595" width="70" height="70" as="geometry" />
        </mxCell>
        <mxCell id="x_Lu6wWpHjOFr1CL_qaY-35" style="edgeStyle=orthogonalEdgeStyle;rounded=0;orthogonalLoop=1;jettySize=auto;html=1;exitX=0.5;exitY=1;exitDx=0;exitDy=0;entryX=0.5;entryY=0;entryDx=0;entryDy=0;" parent="1" source="x_Lu6wWpHjOFr1CL_qaY-36" target="x_Lu6wWpHjOFr1CL_qaY-38" edge="1">
          <mxGeometry relative="1" as="geometry" />
        </mxCell>
        <mxCell id="x_Lu6wWpHjOFr1CL_qaY-78" value="f" style="edgeLabel;html=1;align=center;verticalAlign=middle;resizable=0;points=[];" parent="x_Lu6wWpHjOFr1CL_qaY-35" vertex="1" connectable="0">
          <mxGeometry x="-0.3333" y="-3" relative="1" as="geometry">
            <mxPoint as="offset" />
          </mxGeometry>
        </mxCell>
        <mxCell id="x_Lu6wWpHjOFr1CL_qaY-85" style="edgeStyle=orthogonalEdgeStyle;rounded=0;orthogonalLoop=1;jettySize=auto;html=1;exitX=0;exitY=0.5;exitDx=0;exitDy=0;entryX=0;entryY=0.5;entryDx=0;entryDy=0;" parent="1" source="x_Lu6wWpHjOFr1CL_qaY-36" target="x_Lu6wWpHjOFr1CL_qaY-49" edge="1">
          <mxGeometry relative="1" as="geometry">
            <Array as="points">
              <mxPoint x="160" y="740" />
              <mxPoint x="160" y="560" />
              <mxPoint x="510" y="560" />
              <mxPoint x="510" y="755" />
            </Array>
          </mxGeometry>
        </mxCell>
        <mxCell id="x_Lu6wWpHjOFr1CL_qaY-86" value="f" style="edgeLabel;html=1;align=center;verticalAlign=middle;resizable=0;points=[];" parent="x_Lu6wWpHjOFr1CL_qaY-85" vertex="1" connectable="0">
          <mxGeometry x="0.1695" y="-3" relative="1" as="geometry">
            <mxPoint y="-1" as="offset" />
          </mxGeometry>
        </mxCell>
        <mxCell id="x_Lu6wWpHjOFr1CL_qaY-91" style="edgeStyle=orthogonalEdgeStyle;rounded=0;orthogonalLoop=1;jettySize=auto;html=1;exitX=1;exitY=0.5;exitDx=0;exitDy=0;entryX=0;entryY=0.5;entryDx=0;entryDy=0;" parent="1" source="x_Lu6wWpHjOFr1CL_qaY-36" target="x_Lu6wWpHjOFr1CL_qaY-51" edge="1">
          <mxGeometry relative="1" as="geometry" />
        </mxCell>
        <mxCell id="x_Lu6wWpHjOFr1CL_qaY-92" value="f" style="edgeLabel;html=1;align=center;verticalAlign=middle;resizable=0;points=[];" parent="x_Lu6wWpHjOFr1CL_qaY-91" vertex="1" connectable="0">
          <mxGeometry x="-0.0873" y="-1" relative="1" as="geometry">
            <mxPoint x="-1" as="offset" />
          </mxGeometry>
        </mxCell>
        <mxCell id="x_Lu6wWpHjOFr1CL_qaY-36" value="17" style="ellipse;whiteSpace=wrap;html=1;aspect=fixed;" parent="1" vertex="1">
          <mxGeometry x="180" y="705" width="70" height="70" as="geometry" />
        </mxCell>
        <mxCell id="x_Lu6wWpHjOFr1CL_qaY-38" value="18" style="ellipse;whiteSpace=wrap;html=1;aspect=fixed;" parent="1" vertex="1">
          <mxGeometry x="180" y="825" width="70" height="70" as="geometry" />
        </mxCell>
        <mxCell id="x_Lu6wWpHjOFr1CL_qaY-79" style="edgeStyle=orthogonalEdgeStyle;rounded=0;orthogonalLoop=1;jettySize=auto;html=1;exitX=0.5;exitY=1;exitDx=0;exitDy=0;entryX=0.5;entryY=0;entryDx=0;entryDy=0;" parent="1" source="x_Lu6wWpHjOFr1CL_qaY-40" target="x_Lu6wWpHjOFr1CL_qaY-42" edge="1">
          <mxGeometry relative="1" as="geometry" />
        </mxCell>
        <mxCell id="x_Lu6wWpHjOFr1CL_qaY-80" value="ssum" style="edgeLabel;html=1;align=center;verticalAlign=middle;resizable=0;points=[];" parent="x_Lu6wWpHjOFr1CL_qaY-79" vertex="1" connectable="0">
          <mxGeometry x="-0.0101" y="-3" relative="1" as="geometry">
            <mxPoint as="offset" />
          </mxGeometry>
        </mxCell>
        <mxCell id="x_Lu6wWpHjOFr1CL_qaY-40" value="19&lt;span style=&quot;color: rgba(0, 0, 0, 0); font-family: monospace; font-size: 0px; text-align: start; text-wrap: nowrap;&quot;&gt;%3CmxGraphModel%3E%3Croot%3E%3CmxCell%20id%3D%220%22%2F%3E%3CmxCell%20id%3D%221%22%20parent%3D%220%22%2F%3E%3CmxCell%20id%3D%222%22%20value%3D%221%22%20style%3D%22ellipse%3BwhiteSpace%3Dwrap%3Bhtml%3D1%3Baspect%3Dfixed%3B%22%20vertex%3D%221%22%20parent%3D%221%22%3E%3CmxGeometry%20x%3D%2270%22%20y%3D%2250%22%20width%3D%2270%22%20height%3D%2270%22%20as%3D%22geometry%22%2F%3E%3C%2FmxCell%3E%3C%2Froot%3E%3C%2FmxGraphModel%3E&lt;/span&gt;" style="ellipse;whiteSpace=wrap;html=1;aspect=fixed;" parent="1" vertex="1">
          <mxGeometry x="570" y="240" width="70" height="70" as="geometry" />
        </mxCell>
        <mxCell id="x_Lu6wWpHjOFr1CL_qaY-41" style="edgeStyle=orthogonalEdgeStyle;rounded=0;orthogonalLoop=1;jettySize=auto;html=1;exitX=0.5;exitY=1;exitDx=0;exitDy=0;entryX=0.5;entryY=0;entryDx=0;entryDy=0;" parent="1" source="x_Lu6wWpHjOFr1CL_qaY-42" target="x_Lu6wWpHjOFr1CL_qaY-45" edge="1">
          <mxGeometry relative="1" as="geometry" />
        </mxCell>
        <mxCell id="x_Lu6wWpHjOFr1CL_qaY-42" value="2&lt;span style=&quot;background-color: initial;&quot;&gt;0&lt;/span&gt;" style="ellipse;whiteSpace=wrap;html=1;aspect=fixed;" parent="1" vertex="1">
          <mxGeometry x="570" y="360" width="70" height="70" as="geometry" />
        </mxCell>
        <mxCell id="x_Lu6wWpHjOFr1CL_qaY-45" value="21" style="ellipse;whiteSpace=wrap;html=1;aspect=fixed;" parent="1" vertex="1">
          <mxGeometry x="560" y="500" width="70" height="70" as="geometry" />
        </mxCell>
        <mxCell id="x_Lu6wWpHjOFr1CL_qaY-46" style="edgeStyle=orthogonalEdgeStyle;rounded=0;orthogonalLoop=1;jettySize=auto;html=1;exitX=0.5;exitY=1;exitDx=0;exitDy=0;entryX=0.5;entryY=0;entryDx=0;entryDy=0;" parent="1" source="x_Lu6wWpHjOFr1CL_qaY-47" target="x_Lu6wWpHjOFr1CL_qaY-49" edge="1">
          <mxGeometry relative="1" as="geometry" />
        </mxCell>
        <mxCell id="x_Lu6wWpHjOFr1CL_qaY-87" value="str" style="edgeLabel;html=1;align=center;verticalAlign=middle;resizable=0;points=[];" parent="x_Lu6wWpHjOFr1CL_qaY-46" vertex="1" connectable="0">
          <mxGeometry x="-0.037" relative="1" as="geometry">
            <mxPoint y="-1" as="offset" />
          </mxGeometry>
        </mxCell>
        <mxCell id="x_Lu6wWpHjOFr1CL_qaY-47" value="22" style="ellipse;whiteSpace=wrap;html=1;aspect=fixed;" parent="1" vertex="1">
          <mxGeometry x="555" y="595" width="80" height="80" as="geometry" />
        </mxCell>
        <mxCell id="x_Lu6wWpHjOFr1CL_qaY-49" value="23" style="ellipse;whiteSpace=wrap;html=1;aspect=fixed;" parent="1" vertex="1">
          <mxGeometry x="560" y="720" width="70" height="70" as="geometry" />
        </mxCell>
        <mxCell id="x_Lu6wWpHjOFr1CL_qaY-93" style="edgeStyle=orthogonalEdgeStyle;rounded=0;orthogonalLoop=1;jettySize=auto;html=1;exitX=0.5;exitY=1;exitDx=0;exitDy=0;" parent="1" source="x_Lu6wWpHjOFr1CL_qaY-51" target="x_Lu6wWpHjOFr1CL_qaY-52" edge="1">
          <mxGeometry relative="1" as="geometry" />
        </mxCell>
        <mxCell id="x_Lu6wWpHjOFr1CL_qaY-94" value="t_end" style="edgeLabel;html=1;align=center;verticalAlign=middle;resizable=0;points=[];" parent="x_Lu6wWpHjOFr1CL_qaY-93" vertex="1" connectable="0">
          <mxGeometry x="-0.1556" y="-1" relative="1" as="geometry">
            <mxPoint as="offset" />
          </mxGeometry>
        </mxCell>
        <mxCell id="x_Lu6wWpHjOFr1CL_qaY-51" value="24" style="ellipse;whiteSpace=wrap;html=1;aspect=fixed;" parent="1" vertex="1">
          <mxGeometry x="380" y="715" width="70" height="70" as="geometry" />
        </mxCell>
        <mxCell id="x_Lu6wWpHjOFr1CL_qaY-98" style="edgeStyle=orthogonalEdgeStyle;rounded=0;orthogonalLoop=1;jettySize=auto;html=1;exitX=1;exitY=0.5;exitDx=0;exitDy=0;entryX=0;entryY=0.5;entryDx=0;entryDy=0;" parent="1" source="x_Lu6wWpHjOFr1CL_qaY-52" target="x_Lu6wWpHjOFr1CL_qaY-55" edge="1">
          <mxGeometry relative="1" as="geometry" />
        </mxCell>
        <mxCell id="x_Lu6wWpHjOFr1CL_qaY-52" value="26" style="ellipse;whiteSpace=wrap;html=1;aspect=fixed;" parent="1" vertex="1">
          <mxGeometry x="380" y="825" width="70" height="70" as="geometry" />
        </mxCell>
        <mxCell id="x_Lu6wWpHjOFr1CL_qaY-54" value="25" style="ellipse;whiteSpace=wrap;html=1;aspect=fixed;" parent="1" vertex="1">
          <mxGeometry x="740" y="135" width="70" height="70" as="geometry" />
        </mxCell>
        <mxCell id="x_Lu6wWpHjOFr1CL_qaY-55" value="27" style="ellipse;whiteSpace=wrap;html=1;aspect=fixed;" parent="1" vertex="1">
          <mxGeometry x="500" y="825" width="70" height="70" as="geometry" />
        </mxCell>
        <mxCell id="x_Lu6wWpHjOFr1CL_qaY-57" style="edgeStyle=orthogonalEdgeStyle;rounded=0;orthogonalLoop=1;jettySize=auto;html=1;exitX=0.5;exitY=0;exitDx=0;exitDy=0;entryX=1;entryY=0.5;entryDx=0;entryDy=0;" parent="1" source="x_Lu6wWpHjOFr1CL_qaY-2" target="x_Lu6wWpHjOFr1CL_qaY-2" edge="1">
          <mxGeometry relative="1" as="geometry" />
        </mxCell>
        <mxCell id="x_Lu6wWpHjOFr1CL_qaY-58" value="k" style="edgeLabel;html=1;align=center;verticalAlign=middle;resizable=0;points=[];" parent="x_Lu6wWpHjOFr1CL_qaY-57" vertex="1" connectable="0">
          <mxGeometry x="-0.1251" y="2" relative="1" as="geometry">
            <mxPoint as="offset" />
          </mxGeometry>
        </mxCell>
        <mxCell id="x_Lu6wWpHjOFr1CL_qaY-72" style="edgeStyle=orthogonalEdgeStyle;rounded=0;orthogonalLoop=1;jettySize=auto;html=1;exitX=0.5;exitY=1;exitDx=0;exitDy=0;entryX=0.5;entryY=0;entryDx=0;entryDy=0;" parent="1" source="x_Lu6wWpHjOFr1CL_qaY-71" target="x_Lu6wWpHjOFr1CL_qaY-23" edge="1">
          <mxGeometry relative="1" as="geometry" />
        </mxCell>
        <mxCell id="x_Lu6wWpHjOFr1CL_qaY-73" style="edgeStyle=orthogonalEdgeStyle;rounded=0;orthogonalLoop=1;jettySize=auto;html=1;exitX=0.5;exitY=1;exitDx=0;exitDy=0;entryX=0.5;entryY=0;entryDx=0;entryDy=0;" parent="1" source="x_Lu6wWpHjOFr1CL_qaY-71" target="x_Lu6wWpHjOFr1CL_qaY-25" edge="1">
          <mxGeometry relative="1" as="geometry" />
        </mxCell>
        <mxCell id="x_Lu6wWpHjOFr1CL_qaY-71" value="q3 переменная" style="rounded=0;whiteSpace=wrap;html=1;" parent="1" vertex="1">
          <mxGeometry x="360" y="30" width="120" height="60" as="geometry" />
        </mxCell>
        <mxCell id="x_Lu6wWpHjOFr1CL_qaY-84" style="edgeStyle=orthogonalEdgeStyle;rounded=0;orthogonalLoop=1;jettySize=auto;html=1;exitX=0.5;exitY=1;exitDx=0;exitDy=0;entryX=1;entryY=0.5;entryDx=0;entryDy=0;" parent="1" source="x_Lu6wWpHjOFr1CL_qaY-45" target="x_Lu6wWpHjOFr1CL_qaY-45" edge="1">
          <mxGeometry relative="1" as="geometry" />
        </mxCell>
        <mxCell id="x_Lu6wWpHjOFr1CL_qaY-88" value="p" style="edgeLabel;html=1;align=center;verticalAlign=middle;resizable=0;points=[];" parent="x_Lu6wWpHjOFr1CL_qaY-84" vertex="1" connectable="0">
          <mxGeometry x="0.0593" y="1" relative="1" as="geometry">
            <mxPoint y="1" as="offset" />
          </mxGeometry>
        </mxCell>
        <mxCell id="CDM_TOPTIyMJrl-EUQa1-1" value="&lt;font style=&quot;font-size: 40px;&quot;&gt;ИГ&lt;/font&gt;" style="text;html=1;align=center;verticalAlign=middle;resizable=0;points=[];autosize=1;strokeColor=none;fillColor=none;" vertex="1" parent="1">
          <mxGeometry x="690" y="40" width="70" height="60" as="geometry" />
        </mxCell>
      </root>
    </mxGraphModel>
  </diagram>
  <diagram id="f-vejNSJmnPR_nU-6Y0A" name="ОИ">
    <mxGraphModel dx="1122" dy="773" grid="1" gridSize="10" guides="1" tooltips="1" connect="1" arrows="1" fold="1" page="1" pageScale="1" pageWidth="827" pageHeight="1169" math="0" shadow="0">
      <root>
        <mxCell id="0" />
        <mxCell id="1" parent="0" />
        <mxCell id="OALl0PP9-j-6uH6hQlzI-1" style="edgeStyle=orthogonalEdgeStyle;rounded=0;orthogonalLoop=1;jettySize=auto;html=1;exitX=1;exitY=0.5;exitDx=0;exitDy=0;entryX=0;entryY=0.5;entryDx=0;entryDy=0;" parent="1" source="OALl0PP9-j-6uH6hQlzI-2" target="OALl0PP9-j-6uH6hQlzI-4" edge="1">
          <mxGeometry relative="1" as="geometry" />
        </mxCell>
        <mxCell id="OALl0PP9-j-6uH6hQlzI-67" style="edgeStyle=orthogonalEdgeStyle;rounded=0;orthogonalLoop=1;jettySize=auto;html=1;exitX=0.5;exitY=0;exitDx=0;exitDy=0;entryX=0.5;entryY=1;entryDx=0;entryDy=0;" parent="1" source="OALl0PP9-j-6uH6hQlzI-2" target="OALl0PP9-j-6uH6hQlzI-66" edge="1">
          <mxGeometry relative="1" as="geometry" />
        </mxCell>
        <mxCell id="OALl0PP9-j-6uH6hQlzI-2" value="1" style="ellipse;whiteSpace=wrap;html=1;aspect=fixed;" parent="1" vertex="1">
          <mxGeometry x="30" y="180" width="70" height="70" as="geometry" />
        </mxCell>
        <mxCell id="OALl0PP9-j-6uH6hQlzI-3" style="edgeStyle=orthogonalEdgeStyle;rounded=0;orthogonalLoop=1;jettySize=auto;html=1;exitX=1;exitY=0.5;exitDx=0;exitDy=0;" parent="1" source="OALl0PP9-j-6uH6hQlzI-4" target="OALl0PP9-j-6uH6hQlzI-6" edge="1">
          <mxGeometry relative="1" as="geometry" />
        </mxCell>
        <mxCell id="OALl0PP9-j-6uH6hQlzI-4" value="2" style="ellipse;whiteSpace=wrap;html=1;aspect=fixed;" parent="1" vertex="1">
          <mxGeometry x="130" y="175" width="80" height="80" as="geometry" />
        </mxCell>
        <mxCell id="OALl0PP9-j-6uH6hQlzI-5" style="edgeStyle=orthogonalEdgeStyle;rounded=0;orthogonalLoop=1;jettySize=auto;html=1;exitX=1;exitY=0.5;exitDx=0;exitDy=0;entryX=0;entryY=0.5;entryDx=0;entryDy=0;" parent="1" source="OALl0PP9-j-6uH6hQlzI-6" target="OALl0PP9-j-6uH6hQlzI-8" edge="1">
          <mxGeometry relative="1" as="geometry" />
        </mxCell>
        <mxCell id="OALl0PP9-j-6uH6hQlzI-6" value="3" style="ellipse;whiteSpace=wrap;html=1;aspect=fixed;" parent="1" vertex="1">
          <mxGeometry x="240" y="180" width="70" height="70" as="geometry" />
        </mxCell>
        <mxCell id="OALl0PP9-j-6uH6hQlzI-7" style="edgeStyle=orthogonalEdgeStyle;rounded=0;orthogonalLoop=1;jettySize=auto;html=1;exitX=1;exitY=0.5;exitDx=0;exitDy=0;entryX=0;entryY=0.5;entryDx=0;entryDy=0;" parent="1" source="OALl0PP9-j-6uH6hQlzI-8" target="OALl0PP9-j-6uH6hQlzI-10" edge="1">
          <mxGeometry relative="1" as="geometry" />
        </mxCell>
        <mxCell id="OALl0PP9-j-6uH6hQlzI-8" value="4" style="ellipse;whiteSpace=wrap;html=1;aspect=fixed;" parent="1" vertex="1">
          <mxGeometry x="330" y="180" width="70" height="70" as="geometry" />
        </mxCell>
        <mxCell id="OALl0PP9-j-6uH6hQlzI-9" style="edgeStyle=orthogonalEdgeStyle;rounded=0;orthogonalLoop=1;jettySize=auto;html=1;exitX=1;exitY=0.5;exitDx=0;exitDy=0;entryX=0;entryY=0.5;entryDx=0;entryDy=0;" parent="1" source="OALl0PP9-j-6uH6hQlzI-10" target="OALl0PP9-j-6uH6hQlzI-12" edge="1">
          <mxGeometry relative="1" as="geometry" />
        </mxCell>
        <mxCell id="OALl0PP9-j-6uH6hQlzI-10" value="5" style="ellipse;whiteSpace=wrap;html=1;aspect=fixed;" parent="1" vertex="1">
          <mxGeometry x="420" y="180" width="70" height="70" as="geometry" />
        </mxCell>
        <mxCell id="OALl0PP9-j-6uH6hQlzI-11" style="edgeStyle=orthogonalEdgeStyle;rounded=0;orthogonalLoop=1;jettySize=auto;html=1;exitX=1;exitY=0.5;exitDx=0;exitDy=0;entryX=0;entryY=0.5;entryDx=0;entryDy=0;" parent="1" source="OALl0PP9-j-6uH6hQlzI-12" target="OALl0PP9-j-6uH6hQlzI-14" edge="1">
          <mxGeometry relative="1" as="geometry" />
        </mxCell>
        <mxCell id="OALl0PP9-j-6uH6hQlzI-12" value="6" style="ellipse;whiteSpace=wrap;html=1;aspect=fixed;" parent="1" vertex="1">
          <mxGeometry x="520" y="180" width="70" height="70" as="geometry" />
        </mxCell>
        <mxCell id="OALl0PP9-j-6uH6hQlzI-13" style="edgeStyle=orthogonalEdgeStyle;rounded=0;orthogonalLoop=1;jettySize=auto;html=1;exitX=1;exitY=0.5;exitDx=0;exitDy=0;entryX=0;entryY=0.5;entryDx=0;entryDy=0;" parent="1" source="OALl0PP9-j-6uH6hQlzI-14" target="OALl0PP9-j-6uH6hQlzI-16" edge="1">
          <mxGeometry relative="1" as="geometry" />
        </mxCell>
        <mxCell id="OALl0PP9-j-6uH6hQlzI-14" value="7" style="ellipse;whiteSpace=wrap;html=1;aspect=fixed;" parent="1" vertex="1">
          <mxGeometry x="630" y="180" width="70" height="70" as="geometry" />
        </mxCell>
        <mxCell id="OALl0PP9-j-6uH6hQlzI-15" style="edgeStyle=orthogonalEdgeStyle;rounded=0;orthogonalLoop=1;jettySize=auto;html=1;exitX=1;exitY=0.5;exitDx=0;exitDy=0;entryX=0;entryY=0.5;entryDx=0;entryDy=0;" parent="1" source="OALl0PP9-j-6uH6hQlzI-16" target="OALl0PP9-j-6uH6hQlzI-18" edge="1">
          <mxGeometry relative="1" as="geometry" />
        </mxCell>
        <mxCell id="OALl0PP9-j-6uH6hQlzI-16" value="8" style="ellipse;whiteSpace=wrap;html=1;aspect=fixed;" parent="1" vertex="1">
          <mxGeometry x="720" y="185" width="70" height="70" as="geometry" />
        </mxCell>
        <mxCell id="OALl0PP9-j-6uH6hQlzI-17" style="edgeStyle=orthogonalEdgeStyle;rounded=0;orthogonalLoop=1;jettySize=auto;html=1;exitX=1;exitY=0.5;exitDx=0;exitDy=0;entryX=0;entryY=0.5;entryDx=0;entryDy=0;" parent="1" source="OALl0PP9-j-6uH6hQlzI-18" target="OALl0PP9-j-6uH6hQlzI-21" edge="1">
          <mxGeometry relative="1" as="geometry" />
        </mxCell>
        <mxCell id="OALl0PP9-j-6uH6hQlzI-18" value="9&lt;span style=&quot;color: rgba(0, 0, 0, 0); font-family: monospace; font-size: 0px; text-align: start; text-wrap: nowrap;&quot;&gt;%3CmxGraphModel%3E%3Croot%3E%3CmxCell%20id%3D%220%22%2F%3E%3CmxCell%20id%3D%221%22%20parent%3D%220%22%2F%3E%3CmxCell%20id%3D%222%22%20value%3D%221%22%20style%3D%22ellipse%3BwhiteSpace%3Dwrap%3Bhtml%3D1%3Baspect%3Dfixed%3B%22%20vertex%3D%221%22%20parent%3D%221%22%3E%3CmxGeometry%20x%3D%2270%22%20y%3D%2250%22%20width%3D%2270%22%20height%3D%2270%22%20as%3D%22geometry%22%2F%3E%3C%2FmxCell%3E%3C%2Froot%3E%3C%2FmxGraphModel%3E&lt;/span&gt;" style="ellipse;whiteSpace=wrap;html=1;aspect=fixed;" parent="1" vertex="1">
          <mxGeometry x="100" y="325" width="70" height="70" as="geometry" />
        </mxCell>
        <mxCell id="OALl0PP9-j-6uH6hQlzI-19" style="edgeStyle=orthogonalEdgeStyle;rounded=0;orthogonalLoop=1;jettySize=auto;html=1;exitX=1;exitY=0.5;exitDx=0;exitDy=0;entryX=0;entryY=0.5;entryDx=0;entryDy=0;" parent="1" source="OALl0PP9-j-6uH6hQlzI-21" target="OALl0PP9-j-6uH6hQlzI-23" edge="1">
          <mxGeometry relative="1" as="geometry" />
        </mxCell>
        <mxCell id="OALl0PP9-j-6uH6hQlzI-21" value="10" style="ellipse;whiteSpace=wrap;html=1;aspect=fixed;" parent="1" vertex="1">
          <mxGeometry x="190" y="325" width="70" height="70" as="geometry" />
        </mxCell>
        <mxCell id="OALl0PP9-j-6uH6hQlzI-22" style="edgeStyle=orthogonalEdgeStyle;rounded=0;orthogonalLoop=1;jettySize=auto;html=1;exitX=1;exitY=0.5;exitDx=0;exitDy=0;entryX=0;entryY=0.5;entryDx=0;entryDy=0;" parent="1" source="OALl0PP9-j-6uH6hQlzI-23" target="OALl0PP9-j-6uH6hQlzI-25" edge="1">
          <mxGeometry relative="1" as="geometry" />
        </mxCell>
        <mxCell id="OALl0PP9-j-6uH6hQlzI-23" value="11" style="ellipse;whiteSpace=wrap;html=1;aspect=fixed;" parent="1" vertex="1">
          <mxGeometry x="280" y="325" width="70" height="70" as="geometry" />
        </mxCell>
        <mxCell id="OALl0PP9-j-6uH6hQlzI-24" style="edgeStyle=orthogonalEdgeStyle;rounded=0;orthogonalLoop=1;jettySize=auto;html=1;exitX=1;exitY=0.5;exitDx=0;exitDy=0;entryX=0;entryY=0.5;entryDx=0;entryDy=0;" parent="1" source="OALl0PP9-j-6uH6hQlzI-25" target="OALl0PP9-j-6uH6hQlzI-27" edge="1">
          <mxGeometry relative="1" as="geometry" />
        </mxCell>
        <mxCell id="OALl0PP9-j-6uH6hQlzI-25" value="12" style="ellipse;whiteSpace=wrap;html=1;aspect=fixed;" parent="1" vertex="1">
          <mxGeometry x="370" y="320" width="80" height="80" as="geometry" />
        </mxCell>
        <mxCell id="OALl0PP9-j-6uH6hQlzI-26" style="edgeStyle=orthogonalEdgeStyle;rounded=0;orthogonalLoop=1;jettySize=auto;html=1;exitX=1;exitY=0.5;exitDx=0;exitDy=0;" parent="1" source="OALl0PP9-j-6uH6hQlzI-27" target="OALl0PP9-j-6uH6hQlzI-29" edge="1">
          <mxGeometry relative="1" as="geometry" />
        </mxCell>
        <mxCell id="OALl0PP9-j-6uH6hQlzI-27" value="13" style="ellipse;whiteSpace=wrap;html=1;aspect=fixed;" parent="1" vertex="1">
          <mxGeometry x="470" y="325" width="70" height="70" as="geometry" />
        </mxCell>
        <mxCell id="OALl0PP9-j-6uH6hQlzI-28" style="edgeStyle=orthogonalEdgeStyle;rounded=0;orthogonalLoop=1;jettySize=auto;html=1;exitX=1;exitY=0.5;exitDx=0;exitDy=0;entryX=0;entryY=0.5;entryDx=0;entryDy=0;" parent="1" source="OALl0PP9-j-6uH6hQlzI-29" target="OALl0PP9-j-6uH6hQlzI-32" edge="1">
          <mxGeometry relative="1" as="geometry" />
        </mxCell>
        <mxCell id="OALl0PP9-j-6uH6hQlzI-29" value="14" style="ellipse;whiteSpace=wrap;html=1;aspect=fixed;" parent="1" vertex="1">
          <mxGeometry x="570" y="325" width="70" height="70" as="geometry" />
        </mxCell>
        <mxCell id="OALl0PP9-j-6uH6hQlzI-31" style="edgeStyle=orthogonalEdgeStyle;rounded=0;orthogonalLoop=1;jettySize=auto;html=1;exitX=1;exitY=0.5;exitDx=0;exitDy=0;entryX=0;entryY=0.5;entryDx=0;entryDy=0;" parent="1" source="OALl0PP9-j-6uH6hQlzI-32" target="OALl0PP9-j-6uH6hQlzI-34" edge="1">
          <mxGeometry relative="1" as="geometry" />
        </mxCell>
        <mxCell id="OALl0PP9-j-6uH6hQlzI-32" value="15" style="ellipse;whiteSpace=wrap;html=1;aspect=fixed;" parent="1" vertex="1">
          <mxGeometry x="660" y="325" width="70" height="70" as="geometry" />
        </mxCell>
        <mxCell id="OALl0PP9-j-6uH6hQlzI-33" style="edgeStyle=orthogonalEdgeStyle;rounded=0;orthogonalLoop=1;jettySize=auto;html=1;exitX=0.5;exitY=1;exitDx=0;exitDy=0;entryX=0.5;entryY=0;entryDx=0;entryDy=0;" parent="1" source="OALl0PP9-j-6uH6hQlzI-34" target="OALl0PP9-j-6uH6hQlzI-36" edge="1">
          <mxGeometry relative="1" as="geometry" />
        </mxCell>
        <mxCell id="OALl0PP9-j-6uH6hQlzI-34" value="16" style="ellipse;whiteSpace=wrap;html=1;aspect=fixed;" parent="1" vertex="1">
          <mxGeometry x="750" y="330" width="70" height="70" as="geometry" />
        </mxCell>
        <mxCell id="OALl0PP9-j-6uH6hQlzI-35" style="edgeStyle=orthogonalEdgeStyle;rounded=0;orthogonalLoop=1;jettySize=auto;html=1;exitX=0.5;exitY=1;exitDx=0;exitDy=0;entryX=0.5;entryY=0;entryDx=0;entryDy=0;" parent="1" source="OALl0PP9-j-6uH6hQlzI-36" target="OALl0PP9-j-6uH6hQlzI-38" edge="1">
          <mxGeometry relative="1" as="geometry" />
        </mxCell>
        <mxCell id="OALl0PP9-j-6uH6hQlzI-36" value="17" style="ellipse;whiteSpace=wrap;html=1;aspect=fixed;" parent="1" vertex="1">
          <mxGeometry x="330" y="440" width="70" height="70" as="geometry" />
        </mxCell>
        <mxCell id="OALl0PP9-j-6uH6hQlzI-37" style="edgeStyle=orthogonalEdgeStyle;rounded=0;orthogonalLoop=1;jettySize=auto;html=1;exitX=0;exitY=0.5;exitDx=0;exitDy=0;entryX=1;entryY=0.5;entryDx=0;entryDy=0;" parent="1" source="OALl0PP9-j-6uH6hQlzI-38" target="OALl0PP9-j-6uH6hQlzI-40" edge="1">
          <mxGeometry relative="1" as="geometry" />
        </mxCell>
        <mxCell id="OALl0PP9-j-6uH6hQlzI-38" value="18" style="ellipse;whiteSpace=wrap;html=1;aspect=fixed;" parent="1" vertex="1">
          <mxGeometry x="330" y="535" width="70" height="70" as="geometry" />
        </mxCell>
        <mxCell id="OALl0PP9-j-6uH6hQlzI-39" style="edgeStyle=orthogonalEdgeStyle;rounded=0;orthogonalLoop=1;jettySize=auto;html=1;exitX=0;exitY=0.5;exitDx=0;exitDy=0;entryX=1;entryY=0.5;entryDx=0;entryDy=0;" parent="1" source="OALl0PP9-j-6uH6hQlzI-40" target="OALl0PP9-j-6uH6hQlzI-42" edge="1">
          <mxGeometry relative="1" as="geometry" />
        </mxCell>
        <mxCell id="OALl0PP9-j-6uH6hQlzI-40" value="19&lt;span style=&quot;color: rgba(0, 0, 0, 0); font-family: monospace; font-size: 0px; text-align: start; text-wrap: nowrap;&quot;&gt;%3CmxGraphModel%3E%3Croot%3E%3CmxCell%20id%3D%220%22%2F%3E%3CmxCell%20id%3D%221%22%20parent%3D%220%22%2F%3E%3CmxCell%20id%3D%222%22%20value%3D%221%22%20style%3D%22ellipse%3BwhiteSpace%3Dwrap%3Bhtml%3D1%3Baspect%3Dfixed%3B%22%20vertex%3D%221%22%20parent%3D%221%22%3E%3CmxGeometry%20x%3D%2270%22%20y%3D%2250%22%20width%3D%2270%22%20height%3D%2270%22%20as%3D%22geometry%22%2F%3E%3C%2FmxCell%3E%3C%2Froot%3E%3C%2FmxGraphModel%3E&lt;/span&gt;" style="ellipse;whiteSpace=wrap;html=1;aspect=fixed;" parent="1" vertex="1">
          <mxGeometry x="230" y="535" width="70" height="70" as="geometry" />
        </mxCell>
        <mxCell id="OALl0PP9-j-6uH6hQlzI-41" style="edgeStyle=orthogonalEdgeStyle;rounded=0;orthogonalLoop=1;jettySize=auto;html=1;exitX=0.5;exitY=1;exitDx=0;exitDy=0;entryX=0.5;entryY=0;entryDx=0;entryDy=0;" parent="1" source="OALl0PP9-j-6uH6hQlzI-42" target="OALl0PP9-j-6uH6hQlzI-45" edge="1">
          <mxGeometry relative="1" as="geometry" />
        </mxCell>
        <mxCell id="OALl0PP9-j-6uH6hQlzI-42" value="2&lt;span style=&quot;background-color: initial;&quot;&gt;0&lt;/span&gt;" style="ellipse;whiteSpace=wrap;html=1;aspect=fixed;" parent="1" vertex="1">
          <mxGeometry x="140" y="535" width="70" height="70" as="geometry" />
        </mxCell>
        <mxCell id="OALl0PP9-j-6uH6hQlzI-43" style="edgeStyle=orthogonalEdgeStyle;rounded=0;orthogonalLoop=1;jettySize=auto;html=1;exitX=0.5;exitY=1;exitDx=0;exitDy=0;" parent="1" source="OALl0PP9-j-6uH6hQlzI-45" target="OALl0PP9-j-6uH6hQlzI-47" edge="1">
          <mxGeometry relative="1" as="geometry" />
        </mxCell>
        <mxCell id="OALl0PP9-j-6uH6hQlzI-44" style="edgeStyle=orthogonalEdgeStyle;rounded=0;orthogonalLoop=1;jettySize=auto;html=1;exitX=1;exitY=0.5;exitDx=0;exitDy=0;" parent="1" source="OALl0PP9-j-6uH6hQlzI-62" target="OALl0PP9-j-6uH6hQlzI-51" edge="1">
          <mxGeometry relative="1" as="geometry" />
        </mxCell>
        <mxCell id="OALl0PP9-j-6uH6hQlzI-45" value="21" style="ellipse;whiteSpace=wrap;html=1;aspect=fixed;" parent="1" vertex="1">
          <mxGeometry x="140" y="625" width="70" height="70" as="geometry" />
        </mxCell>
        <mxCell id="OALl0PP9-j-6uH6hQlzI-46" style="edgeStyle=orthogonalEdgeStyle;rounded=0;orthogonalLoop=1;jettySize=auto;html=1;exitX=0.5;exitY=1;exitDx=0;exitDy=0;entryX=0.5;entryY=0;entryDx=0;entryDy=0;" parent="1" source="OALl0PP9-j-6uH6hQlzI-47" target="OALl0PP9-j-6uH6hQlzI-49" edge="1">
          <mxGeometry relative="1" as="geometry" />
        </mxCell>
        <mxCell id="OALl0PP9-j-6uH6hQlzI-47" value="22" style="ellipse;whiteSpace=wrap;html=1;aspect=fixed;" parent="1" vertex="1">
          <mxGeometry x="135" y="720" width="80" height="80" as="geometry" />
        </mxCell>
        <mxCell id="OALl0PP9-j-6uH6hQlzI-48" style="edgeStyle=orthogonalEdgeStyle;rounded=0;orthogonalLoop=1;jettySize=auto;html=1;exitX=0;exitY=0.5;exitDx=0;exitDy=0;entryX=0;entryY=0.5;entryDx=0;entryDy=0;" parent="1" source="OALl0PP9-j-6uH6hQlzI-49" target="OALl0PP9-j-6uH6hQlzI-58" edge="1">
          <mxGeometry relative="1" as="geometry">
            <Array as="points">
              <mxPoint x="240" y="860" />
              <mxPoint x="240" y="655" />
            </Array>
          </mxGeometry>
        </mxCell>
        <mxCell id="OALl0PP9-j-6uH6hQlzI-49" value="23" style="ellipse;whiteSpace=wrap;html=1;aspect=fixed;" parent="1" vertex="1">
          <mxGeometry x="145" y="825" width="70" height="70" as="geometry" />
        </mxCell>
        <mxCell id="OALl0PP9-j-6uH6hQlzI-50" style="edgeStyle=orthogonalEdgeStyle;rounded=0;orthogonalLoop=1;jettySize=auto;html=1;exitX=1;exitY=0.5;exitDx=0;exitDy=0;entryX=0;entryY=0.5;entryDx=0;entryDy=0;" parent="1" source="OALl0PP9-j-6uH6hQlzI-51" target="OALl0PP9-j-6uH6hQlzI-52" edge="1">
          <mxGeometry relative="1" as="geometry" />
        </mxCell>
        <mxCell id="OALl0PP9-j-6uH6hQlzI-51" value="24" style="ellipse;whiteSpace=wrap;html=1;aspect=fixed;" parent="1" vertex="1">
          <mxGeometry x="400" y="605" width="70" height="70" as="geometry" />
        </mxCell>
        <mxCell id="OALl0PP9-j-6uH6hQlzI-52" value="25" style="ellipse;whiteSpace=wrap;html=1;aspect=fixed;" parent="1" vertex="1">
          <mxGeometry x="510" y="605" width="70" height="70" as="geometry" />
        </mxCell>
        <mxCell id="OALl0PP9-j-6uH6hQlzI-53" style="edgeStyle=orthogonalEdgeStyle;rounded=0;orthogonalLoop=1;jettySize=auto;html=1;exitX=1;exitY=0.5;exitDx=0;exitDy=0;" parent="1" source="OALl0PP9-j-6uH6hQlzI-54" target="OALl0PP9-j-6uH6hQlzI-55" edge="1">
          <mxGeometry relative="1" as="geometry" />
        </mxCell>
        <mxCell id="OALl0PP9-j-6uH6hQlzI-54" value="26" style="ellipse;whiteSpace=wrap;html=1;aspect=fixed;" parent="1" vertex="1">
          <mxGeometry x="620" y="610" width="70" height="70" as="geometry" />
        </mxCell>
        <mxCell id="OALl0PP9-j-6uH6hQlzI-65" style="edgeStyle=orthogonalEdgeStyle;rounded=0;orthogonalLoop=1;jettySize=auto;html=1;exitX=0.5;exitY=1;exitDx=0;exitDy=0;entryX=0.5;entryY=1;entryDx=0;entryDy=0;" parent="1" source="OALl0PP9-j-6uH6hQlzI-55" target="OALl0PP9-j-6uH6hQlzI-2" edge="1">
          <mxGeometry relative="1" as="geometry">
            <Array as="points">
              <mxPoint x="775" y="930" />
              <mxPoint x="65" y="930" />
            </Array>
          </mxGeometry>
        </mxCell>
        <mxCell id="OALl0PP9-j-6uH6hQlzI-68" value="Повторяется COUNT_PARTS" style="edgeLabel;html=1;align=center;verticalAlign=middle;resizable=0;points=[];" parent="OALl0PP9-j-6uH6hQlzI-65" vertex="1" connectable="0">
          <mxGeometry x="0.0241" y="-2" relative="1" as="geometry">
            <mxPoint x="-1" as="offset" />
          </mxGeometry>
        </mxCell>
        <mxCell id="OALl0PP9-j-6uH6hQlzI-55" value="27" style="ellipse;whiteSpace=wrap;html=1;aspect=fixed;" parent="1" vertex="1">
          <mxGeometry x="740" y="610" width="70" height="70" as="geometry" />
        </mxCell>
        <mxCell id="OALl0PP9-j-6uH6hQlzI-56" style="edgeStyle=orthogonalEdgeStyle;rounded=0;orthogonalLoop=1;jettySize=auto;html=1;exitX=1;exitY=0.5;exitDx=0;exitDy=0;entryX=-0.016;entryY=0.595;entryDx=0;entryDy=0;entryPerimeter=0;" parent="1" source="OALl0PP9-j-6uH6hQlzI-52" target="OALl0PP9-j-6uH6hQlzI-54" edge="1">
          <mxGeometry relative="1" as="geometry" />
        </mxCell>
        <mxCell id="OALl0PP9-j-6uH6hQlzI-57" style="edgeStyle=orthogonalEdgeStyle;rounded=0;orthogonalLoop=1;jettySize=auto;html=1;exitX=0.5;exitY=1;exitDx=0;exitDy=0;" parent="1" source="OALl0PP9-j-6uH6hQlzI-58" target="OALl0PP9-j-6uH6hQlzI-60" edge="1">
          <mxGeometry relative="1" as="geometry" />
        </mxCell>
        <mxCell id="OALl0PP9-j-6uH6hQlzI-58" value="21" style="ellipse;whiteSpace=wrap;html=1;aspect=fixed;" parent="1" vertex="1">
          <mxGeometry x="320" y="620" width="70" height="70" as="geometry" />
        </mxCell>
        <mxCell id="OALl0PP9-j-6uH6hQlzI-59" style="edgeStyle=orthogonalEdgeStyle;rounded=0;orthogonalLoop=1;jettySize=auto;html=1;exitX=0.5;exitY=1;exitDx=0;exitDy=0;entryX=0.5;entryY=0;entryDx=0;entryDy=0;" parent="1" source="OALl0PP9-j-6uH6hQlzI-60" target="OALl0PP9-j-6uH6hQlzI-62" edge="1">
          <mxGeometry relative="1" as="geometry" />
        </mxCell>
        <mxCell id="OALl0PP9-j-6uH6hQlzI-60" value="22" style="ellipse;whiteSpace=wrap;html=1;aspect=fixed;" parent="1" vertex="1">
          <mxGeometry x="315" y="715" width="80" height="80" as="geometry" />
        </mxCell>
        <mxCell id="OALl0PP9-j-6uH6hQlzI-62" value="23" style="ellipse;whiteSpace=wrap;html=1;aspect=fixed;" parent="1" vertex="1">
          <mxGeometry x="325" y="820" width="70" height="70" as="geometry" />
        </mxCell>
        <mxCell id="OALl0PP9-j-6uH6hQlzI-63" value="количество раз равное количеству групп" style="text;html=1;align=center;verticalAlign=middle;resizable=0;points=[];autosize=1;strokeColor=none;fillColor=none;" parent="1" vertex="1">
          <mxGeometry x="164" y="890" width="250" height="30" as="geometry" />
        </mxCell>
        <mxCell id="OALl0PP9-j-6uH6hQlzI-66" value="конец" style="rounded=0;whiteSpace=wrap;html=1;" parent="1" vertex="1">
          <mxGeometry x="50" y="50" width="120" height="60" as="geometry" />
        </mxCell>
        <mxCell id="OALl0PP9-j-6uH6hQlzI-135" style="edgeStyle=orthogonalEdgeStyle;rounded=0;orthogonalLoop=1;jettySize=auto;html=1;" parent="1" source="OALl0PP9-j-6uH6hQlzI-69" target="OALl0PP9-j-6uH6hQlzI-23" edge="1">
          <mxGeometry relative="1" as="geometry" />
        </mxCell>
        <mxCell id="OALl0PP9-j-6uH6hQlzI-69" value="Если q3.size() &amp;gt; 0" style="text;html=1;align=center;verticalAlign=middle;resizable=0;points=[];autosize=1;strokeColor=none;fillColor=none;" parent="1" vertex="1">
          <mxGeometry x="130" y="258" width="120" height="30" as="geometry" />
        </mxCell>
        <mxCell id="OALl0PP9-j-6uH6hQlzI-70" style="edgeStyle=orthogonalEdgeStyle;rounded=0;orthogonalLoop=1;jettySize=auto;html=1;exitX=1;exitY=0.5;exitDx=0;exitDy=0;entryX=0;entryY=0.5;entryDx=0;entryDy=0;" parent="1" source="OALl0PP9-j-6uH6hQlzI-72" target="OALl0PP9-j-6uH6hQlzI-74" edge="1">
          <mxGeometry relative="1" as="geometry" />
        </mxCell>
        <mxCell id="OALl0PP9-j-6uH6hQlzI-71" style="edgeStyle=orthogonalEdgeStyle;rounded=0;orthogonalLoop=1;jettySize=auto;html=1;exitX=0.5;exitY=0;exitDx=0;exitDy=0;entryX=0.5;entryY=1;entryDx=0;entryDy=0;" parent="1" source="OALl0PP9-j-6uH6hQlzI-72" target="OALl0PP9-j-6uH6hQlzI-133" edge="1">
          <mxGeometry relative="1" as="geometry" />
        </mxCell>
        <mxCell id="OALl0PP9-j-6uH6hQlzI-72" value="1" style="ellipse;whiteSpace=wrap;html=1;aspect=fixed;" parent="1" vertex="1">
          <mxGeometry x="50" y="1330" width="70" height="70" as="geometry" />
        </mxCell>
        <mxCell id="OALl0PP9-j-6uH6hQlzI-73" style="edgeStyle=orthogonalEdgeStyle;rounded=0;orthogonalLoop=1;jettySize=auto;html=1;exitX=1;exitY=0.5;exitDx=0;exitDy=0;" parent="1" source="OALl0PP9-j-6uH6hQlzI-74" target="OALl0PP9-j-6uH6hQlzI-76" edge="1">
          <mxGeometry relative="1" as="geometry" />
        </mxCell>
        <mxCell id="OALl0PP9-j-6uH6hQlzI-74" value="2" style="ellipse;whiteSpace=wrap;html=1;aspect=fixed;" parent="1" vertex="1">
          <mxGeometry x="150" y="1325" width="80" height="80" as="geometry" />
        </mxCell>
        <mxCell id="OALl0PP9-j-6uH6hQlzI-75" style="edgeStyle=orthogonalEdgeStyle;rounded=0;orthogonalLoop=1;jettySize=auto;html=1;exitX=1;exitY=0.5;exitDx=0;exitDy=0;entryX=0;entryY=0.5;entryDx=0;entryDy=0;" parent="1" source="OALl0PP9-j-6uH6hQlzI-76" target="OALl0PP9-j-6uH6hQlzI-78" edge="1">
          <mxGeometry relative="1" as="geometry" />
        </mxCell>
        <mxCell id="OALl0PP9-j-6uH6hQlzI-76" value="3" style="ellipse;whiteSpace=wrap;html=1;aspect=fixed;" parent="1" vertex="1">
          <mxGeometry x="260" y="1330" width="70" height="70" as="geometry" />
        </mxCell>
        <mxCell id="OALl0PP9-j-6uH6hQlzI-77" style="edgeStyle=orthogonalEdgeStyle;rounded=0;orthogonalLoop=1;jettySize=auto;html=1;exitX=1;exitY=0.5;exitDx=0;exitDy=0;entryX=0;entryY=0.5;entryDx=0;entryDy=0;" parent="1" source="OALl0PP9-j-6uH6hQlzI-78" target="OALl0PP9-j-6uH6hQlzI-80" edge="1">
          <mxGeometry relative="1" as="geometry" />
        </mxCell>
        <mxCell id="OALl0PP9-j-6uH6hQlzI-78" value="4" style="ellipse;whiteSpace=wrap;html=1;aspect=fixed;" parent="1" vertex="1">
          <mxGeometry x="350" y="1330" width="70" height="70" as="geometry" />
        </mxCell>
        <mxCell id="OALl0PP9-j-6uH6hQlzI-79" style="edgeStyle=orthogonalEdgeStyle;rounded=0;orthogonalLoop=1;jettySize=auto;html=1;exitX=1;exitY=0.5;exitDx=0;exitDy=0;entryX=0;entryY=0.5;entryDx=0;entryDy=0;" parent="1" source="OALl0PP9-j-6uH6hQlzI-80" target="OALl0PP9-j-6uH6hQlzI-82" edge="1">
          <mxGeometry relative="1" as="geometry" />
        </mxCell>
        <mxCell id="OALl0PP9-j-6uH6hQlzI-80" value="5" style="ellipse;whiteSpace=wrap;html=1;aspect=fixed;" parent="1" vertex="1">
          <mxGeometry x="440" y="1330" width="70" height="70" as="geometry" />
        </mxCell>
        <mxCell id="OALl0PP9-j-6uH6hQlzI-81" style="edgeStyle=orthogonalEdgeStyle;rounded=0;orthogonalLoop=1;jettySize=auto;html=1;exitX=1;exitY=0.5;exitDx=0;exitDy=0;entryX=0;entryY=0.5;entryDx=0;entryDy=0;" parent="1" source="OALl0PP9-j-6uH6hQlzI-82" target="OALl0PP9-j-6uH6hQlzI-84" edge="1">
          <mxGeometry relative="1" as="geometry" />
        </mxCell>
        <mxCell id="OALl0PP9-j-6uH6hQlzI-82" value="6" style="ellipse;whiteSpace=wrap;html=1;aspect=fixed;" parent="1" vertex="1">
          <mxGeometry x="540" y="1330" width="70" height="70" as="geometry" />
        </mxCell>
        <mxCell id="OALl0PP9-j-6uH6hQlzI-83" style="edgeStyle=orthogonalEdgeStyle;rounded=0;orthogonalLoop=1;jettySize=auto;html=1;exitX=1;exitY=0.5;exitDx=0;exitDy=0;entryX=0;entryY=0.5;entryDx=0;entryDy=0;" parent="1" source="OALl0PP9-j-6uH6hQlzI-84" target="OALl0PP9-j-6uH6hQlzI-86" edge="1">
          <mxGeometry relative="1" as="geometry" />
        </mxCell>
        <mxCell id="OALl0PP9-j-6uH6hQlzI-84" value="7" style="ellipse;whiteSpace=wrap;html=1;aspect=fixed;" parent="1" vertex="1">
          <mxGeometry x="650" y="1330" width="70" height="70" as="geometry" />
        </mxCell>
        <mxCell id="OALl0PP9-j-6uH6hQlzI-85" style="edgeStyle=orthogonalEdgeStyle;rounded=0;orthogonalLoop=1;jettySize=auto;html=1;exitX=1;exitY=0.5;exitDx=0;exitDy=0;entryX=0;entryY=0.5;entryDx=0;entryDy=0;" parent="1" source="OALl0PP9-j-6uH6hQlzI-86" target="OALl0PP9-j-6uH6hQlzI-88" edge="1">
          <mxGeometry relative="1" as="geometry" />
        </mxCell>
        <mxCell id="OALl0PP9-j-6uH6hQlzI-86" value="8" style="ellipse;whiteSpace=wrap;html=1;aspect=fixed;" parent="1" vertex="1">
          <mxGeometry x="130" y="1510" width="70" height="70" as="geometry" />
        </mxCell>
        <mxCell id="OALl0PP9-j-6uH6hQlzI-87" style="edgeStyle=orthogonalEdgeStyle;rounded=0;orthogonalLoop=1;jettySize=auto;html=1;exitX=1;exitY=0.5;exitDx=0;exitDy=0;entryX=0;entryY=0.5;entryDx=0;entryDy=0;" parent="1" source="OALl0PP9-j-6uH6hQlzI-88" target="OALl0PP9-j-6uH6hQlzI-90" edge="1">
          <mxGeometry relative="1" as="geometry" />
        </mxCell>
        <mxCell id="OALl0PP9-j-6uH6hQlzI-88" value="9&lt;span style=&quot;color: rgba(0, 0, 0, 0); font-family: monospace; font-size: 0px; text-align: start; text-wrap: nowrap;&quot;&gt;%3CmxGraphModel%3E%3Croot%3E%3CmxCell%20id%3D%220%22%2F%3E%3CmxCell%20id%3D%221%22%20parent%3D%220%22%2F%3E%3CmxCell%20id%3D%222%22%20value%3D%221%22%20style%3D%22ellipse%3BwhiteSpace%3Dwrap%3Bhtml%3D1%3Baspect%3Dfixed%3B%22%20vertex%3D%221%22%20parent%3D%221%22%3E%3CmxGeometry%20x%3D%2270%22%20y%3D%2250%22%20width%3D%2270%22%20height%3D%2270%22%20as%3D%22geometry%22%2F%3E%3C%2FmxCell%3E%3C%2Froot%3E%3C%2FmxGraphModel%3E&lt;/span&gt;" style="ellipse;whiteSpace=wrap;html=1;aspect=fixed;" parent="1" vertex="1">
          <mxGeometry x="220" y="1510" width="70" height="70" as="geometry" />
        </mxCell>
        <mxCell id="OALl0PP9-j-6uH6hQlzI-89" style="edgeStyle=orthogonalEdgeStyle;rounded=0;orthogonalLoop=1;jettySize=auto;html=1;exitX=1;exitY=0.5;exitDx=0;exitDy=0;entryX=0;entryY=0.5;entryDx=0;entryDy=0;" parent="1" source="OALl0PP9-j-6uH6hQlzI-90" target="OALl0PP9-j-6uH6hQlzI-92" edge="1">
          <mxGeometry relative="1" as="geometry" />
        </mxCell>
        <mxCell id="OALl0PP9-j-6uH6hQlzI-90" value="10" style="ellipse;whiteSpace=wrap;html=1;aspect=fixed;" parent="1" vertex="1">
          <mxGeometry x="310" y="1510" width="70" height="70" as="geometry" />
        </mxCell>
        <mxCell id="OALl0PP9-j-6uH6hQlzI-91" style="edgeStyle=orthogonalEdgeStyle;rounded=0;orthogonalLoop=1;jettySize=auto;html=1;exitX=1;exitY=0.5;exitDx=0;exitDy=0;entryX=0.02;entryY=0.586;entryDx=0;entryDy=0;entryPerimeter=0;" parent="1" source="OALl0PP9-j-6uH6hQlzI-92" target="OALl0PP9-j-6uH6hQlzI-202" edge="1">
          <mxGeometry relative="1" as="geometry">
            <mxPoint x="490.0000000000159" y="1545" as="targetPoint" />
          </mxGeometry>
        </mxCell>
        <mxCell id="OALl0PP9-j-6uH6hQlzI-92" value="11" style="ellipse;whiteSpace=wrap;html=1;aspect=fixed;" parent="1" vertex="1">
          <mxGeometry x="400" y="1510" width="70" height="70" as="geometry" />
        </mxCell>
        <mxCell id="OALl0PP9-j-6uH6hQlzI-99" style="edgeStyle=orthogonalEdgeStyle;rounded=0;orthogonalLoop=1;jettySize=auto;html=1;exitX=1;exitY=0.5;exitDx=0;exitDy=0;entryX=0;entryY=0.5;entryDx=0;entryDy=0;" parent="1" source="OALl0PP9-j-6uH6hQlzI-100" target="OALl0PP9-j-6uH6hQlzI-102" edge="1">
          <mxGeometry relative="1" as="geometry" />
        </mxCell>
        <mxCell id="OALl0PP9-j-6uH6hQlzI-100" value="15" style="ellipse;whiteSpace=wrap;html=1;aspect=fixed;" parent="1" vertex="1">
          <mxGeometry x="465" y="1740" width="70" height="70" as="geometry" />
        </mxCell>
        <mxCell id="OALl0PP9-j-6uH6hQlzI-101" style="edgeStyle=orthogonalEdgeStyle;rounded=0;orthogonalLoop=1;jettySize=auto;html=1;exitX=1;exitY=0.5;exitDx=0;exitDy=0;entryX=0.5;entryY=0;entryDx=0;entryDy=0;" parent="1" source="OALl0PP9-j-6uH6hQlzI-102" target="OALl0PP9-j-6uH6hQlzI-104" edge="1">
          <mxGeometry relative="1" as="geometry" />
        </mxCell>
        <mxCell id="OALl0PP9-j-6uH6hQlzI-102" value="16" style="ellipse;whiteSpace=wrap;html=1;aspect=fixed;" parent="1" vertex="1">
          <mxGeometry x="585" y="1740" width="70" height="70" as="geometry" />
        </mxCell>
        <mxCell id="OALl0PP9-j-6uH6hQlzI-103" style="edgeStyle=orthogonalEdgeStyle;rounded=0;orthogonalLoop=1;jettySize=auto;html=1;exitX=0;exitY=0.5;exitDx=0;exitDy=0;entryX=1;entryY=0.5;entryDx=0;entryDy=0;" parent="1" source="OALl0PP9-j-6uH6hQlzI-104" target="OALl0PP9-j-6uH6hQlzI-106" edge="1">
          <mxGeometry relative="1" as="geometry">
            <Array as="points">
              <mxPoint x="720" y="1855" />
            </Array>
          </mxGeometry>
        </mxCell>
        <mxCell id="OALl0PP9-j-6uH6hQlzI-104" value="17" style="ellipse;whiteSpace=wrap;html=1;aspect=fixed;" parent="1" vertex="1">
          <mxGeometry x="720" y="1820" width="70" height="70" as="geometry" />
        </mxCell>
        <mxCell id="OALl0PP9-j-6uH6hQlzI-105" style="edgeStyle=orthogonalEdgeStyle;rounded=0;orthogonalLoop=1;jettySize=auto;html=1;exitX=0;exitY=0.5;exitDx=0;exitDy=0;entryX=1;entryY=0.5;entryDx=0;entryDy=0;" parent="1" source="OALl0PP9-j-6uH6hQlzI-106" target="OALl0PP9-j-6uH6hQlzI-108" edge="1">
          <mxGeometry relative="1" as="geometry" />
        </mxCell>
        <mxCell id="OALl0PP9-j-6uH6hQlzI-106" value="18" style="ellipse;whiteSpace=wrap;html=1;aspect=fixed;" parent="1" vertex="1">
          <mxGeometry x="585" y="1820" width="70" height="70" as="geometry" />
        </mxCell>
        <mxCell id="OALl0PP9-j-6uH6hQlzI-107" style="edgeStyle=orthogonalEdgeStyle;rounded=0;orthogonalLoop=1;jettySize=auto;html=1;exitX=0;exitY=0.5;exitDx=0;exitDy=0;entryX=1;entryY=0.5;entryDx=0;entryDy=0;" parent="1" source="OALl0PP9-j-6uH6hQlzI-108" target="OALl0PP9-j-6uH6hQlzI-110" edge="1">
          <mxGeometry relative="1" as="geometry" />
        </mxCell>
        <mxCell id="OALl0PP9-j-6uH6hQlzI-108" value="19&lt;span style=&quot;color: rgba(0, 0, 0, 0); font-family: monospace; font-size: 0px; text-align: start; text-wrap: nowrap;&quot;&gt;%3CmxGraphModel%3E%3Croot%3E%3CmxCell%20id%3D%220%22%2F%3E%3CmxCell%20id%3D%221%22%20parent%3D%220%22%2F%3E%3CmxCell%20id%3D%222%22%20value%3D%221%22%20style%3D%22ellipse%3BwhiteSpace%3Dwrap%3Bhtml%3D1%3Baspect%3Dfixed%3B%22%20vertex%3D%221%22%20parent%3D%221%22%3E%3CmxGeometry%20x%3D%2270%22%20y%3D%2250%22%20width%3D%2270%22%20height%3D%2270%22%20as%3D%22geometry%22%2F%3E%3C%2FmxCell%3E%3C%2Froot%3E%3C%2FmxGraphModel%3E&lt;/span&gt;" style="ellipse;whiteSpace=wrap;html=1;aspect=fixed;" parent="1" vertex="1">
          <mxGeometry x="485" y="1820" width="70" height="70" as="geometry" />
        </mxCell>
        <mxCell id="OALl0PP9-j-6uH6hQlzI-109" style="edgeStyle=orthogonalEdgeStyle;rounded=0;orthogonalLoop=1;jettySize=auto;html=1;exitX=0.5;exitY=1;exitDx=0;exitDy=0;entryX=0.5;entryY=0;entryDx=0;entryDy=0;" parent="1" source="OALl0PP9-j-6uH6hQlzI-110" target="OALl0PP9-j-6uH6hQlzI-113" edge="1">
          <mxGeometry relative="1" as="geometry" />
        </mxCell>
        <mxCell id="OALl0PP9-j-6uH6hQlzI-110" value="2&lt;span style=&quot;background-color: initial;&quot;&gt;0&lt;/span&gt;" style="ellipse;whiteSpace=wrap;html=1;aspect=fixed;" parent="1" vertex="1">
          <mxGeometry x="395" y="1820" width="70" height="70" as="geometry" />
        </mxCell>
        <mxCell id="OALl0PP9-j-6uH6hQlzI-111" style="edgeStyle=orthogonalEdgeStyle;rounded=0;orthogonalLoop=1;jettySize=auto;html=1;exitX=0.5;exitY=1;exitDx=0;exitDy=0;" parent="1" source="OALl0PP9-j-6uH6hQlzI-113" target="OALl0PP9-j-6uH6hQlzI-115" edge="1">
          <mxGeometry relative="1" as="geometry" />
        </mxCell>
        <mxCell id="OALl0PP9-j-6uH6hQlzI-112" style="edgeStyle=orthogonalEdgeStyle;rounded=0;orthogonalLoop=1;jettySize=auto;html=1;exitX=1;exitY=0.5;exitDx=0;exitDy=0;" parent="1" source="OALl0PP9-j-6uH6hQlzI-131" target="OALl0PP9-j-6uH6hQlzI-119" edge="1">
          <mxGeometry relative="1" as="geometry" />
        </mxCell>
        <mxCell id="OALl0PP9-j-6uH6hQlzI-113" value="21" style="ellipse;whiteSpace=wrap;html=1;aspect=fixed;" parent="1" vertex="1">
          <mxGeometry x="395" y="1910" width="70" height="70" as="geometry" />
        </mxCell>
        <mxCell id="OALl0PP9-j-6uH6hQlzI-114" style="edgeStyle=orthogonalEdgeStyle;rounded=0;orthogonalLoop=1;jettySize=auto;html=1;exitX=0.5;exitY=1;exitDx=0;exitDy=0;entryX=0.5;entryY=0;entryDx=0;entryDy=0;" parent="1" source="OALl0PP9-j-6uH6hQlzI-115" target="OALl0PP9-j-6uH6hQlzI-117" edge="1">
          <mxGeometry relative="1" as="geometry" />
        </mxCell>
        <mxCell id="OALl0PP9-j-6uH6hQlzI-115" value="22" style="ellipse;whiteSpace=wrap;html=1;aspect=fixed;" parent="1" vertex="1">
          <mxGeometry x="390" y="2005" width="80" height="80" as="geometry" />
        </mxCell>
        <mxCell id="OALl0PP9-j-6uH6hQlzI-116" style="edgeStyle=orthogonalEdgeStyle;rounded=0;orthogonalLoop=1;jettySize=auto;html=1;exitX=0;exitY=0.5;exitDx=0;exitDy=0;entryX=0;entryY=0.5;entryDx=0;entryDy=0;" parent="1" source="OALl0PP9-j-6uH6hQlzI-117" target="OALl0PP9-j-6uH6hQlzI-128" edge="1">
          <mxGeometry relative="1" as="geometry">
            <Array as="points">
              <mxPoint x="495" y="2145" />
              <mxPoint x="495" y="1940" />
            </Array>
          </mxGeometry>
        </mxCell>
        <mxCell id="OALl0PP9-j-6uH6hQlzI-117" value="23" style="ellipse;whiteSpace=wrap;html=1;aspect=fixed;" parent="1" vertex="1">
          <mxGeometry x="400" y="2110" width="70" height="70" as="geometry" />
        </mxCell>
        <mxCell id="OALl0PP9-j-6uH6hQlzI-118" style="edgeStyle=orthogonalEdgeStyle;rounded=0;orthogonalLoop=1;jettySize=auto;html=1;exitX=1;exitY=0.5;exitDx=0;exitDy=0;entryX=0;entryY=0.5;entryDx=0;entryDy=0;" parent="1" source="OALl0PP9-j-6uH6hQlzI-119" target="OALl0PP9-j-6uH6hQlzI-120" edge="1">
          <mxGeometry relative="1" as="geometry" />
        </mxCell>
        <mxCell id="OALl0PP9-j-6uH6hQlzI-119" value="24" style="ellipse;whiteSpace=wrap;html=1;aspect=fixed;" parent="1" vertex="1">
          <mxGeometry x="280" y="2220" width="70" height="70" as="geometry" />
        </mxCell>
        <mxCell id="OALl0PP9-j-6uH6hQlzI-120" value="25" style="ellipse;whiteSpace=wrap;html=1;aspect=fixed;" parent="1" vertex="1">
          <mxGeometry x="390" y="2220" width="70" height="70" as="geometry" />
        </mxCell>
        <mxCell id="OALl0PP9-j-6uH6hQlzI-121" style="edgeStyle=orthogonalEdgeStyle;rounded=0;orthogonalLoop=1;jettySize=auto;html=1;exitX=1;exitY=0.5;exitDx=0;exitDy=0;" parent="1" source="OALl0PP9-j-6uH6hQlzI-122" target="OALl0PP9-j-6uH6hQlzI-125" edge="1">
          <mxGeometry relative="1" as="geometry" />
        </mxCell>
        <mxCell id="OALl0PP9-j-6uH6hQlzI-122" value="26" style="ellipse;whiteSpace=wrap;html=1;aspect=fixed;" parent="1" vertex="1">
          <mxGeometry x="500" y="2225" width="70" height="70" as="geometry" />
        </mxCell>
        <mxCell id="OALl0PP9-j-6uH6hQlzI-123" style="edgeStyle=orthogonalEdgeStyle;rounded=0;orthogonalLoop=1;jettySize=auto;html=1;exitX=0.5;exitY=1;exitDx=0;exitDy=0;entryX=0.5;entryY=1;entryDx=0;entryDy=0;" parent="1" source="OALl0PP9-j-6uH6hQlzI-125" target="OALl0PP9-j-6uH6hQlzI-72" edge="1">
          <mxGeometry relative="1" as="geometry">
            <Array as="points">
              <mxPoint x="655" y="2320" />
              <mxPoint x="90" y="2320" />
              <mxPoint x="90" y="1760" />
              <mxPoint x="85" y="1760" />
            </Array>
          </mxGeometry>
        </mxCell>
        <mxCell id="OALl0PP9-j-6uH6hQlzI-124" value="Повторяется COUNT_PARTS" style="edgeLabel;html=1;align=center;verticalAlign=middle;resizable=0;points=[];" parent="OALl0PP9-j-6uH6hQlzI-123" vertex="1" connectable="0">
          <mxGeometry x="0.0241" y="-2" relative="1" as="geometry">
            <mxPoint x="-1" as="offset" />
          </mxGeometry>
        </mxCell>
        <mxCell id="OALl0PP9-j-6uH6hQlzI-125" value="27" style="ellipse;whiteSpace=wrap;html=1;aspect=fixed;" parent="1" vertex="1">
          <mxGeometry x="620" y="2225" width="70" height="70" as="geometry" />
        </mxCell>
        <mxCell id="OALl0PP9-j-6uH6hQlzI-126" style="edgeStyle=orthogonalEdgeStyle;rounded=0;orthogonalLoop=1;jettySize=auto;html=1;exitX=1;exitY=0.5;exitDx=0;exitDy=0;entryX=-0.016;entryY=0.595;entryDx=0;entryDy=0;entryPerimeter=0;" parent="1" source="OALl0PP9-j-6uH6hQlzI-120" target="OALl0PP9-j-6uH6hQlzI-122" edge="1">
          <mxGeometry relative="1" as="geometry" />
        </mxCell>
        <mxCell id="OALl0PP9-j-6uH6hQlzI-127" style="edgeStyle=orthogonalEdgeStyle;rounded=0;orthogonalLoop=1;jettySize=auto;html=1;exitX=0.5;exitY=1;exitDx=0;exitDy=0;" parent="1" source="OALl0PP9-j-6uH6hQlzI-128" target="OALl0PP9-j-6uH6hQlzI-130" edge="1">
          <mxGeometry relative="1" as="geometry" />
        </mxCell>
        <mxCell id="OALl0PP9-j-6uH6hQlzI-128" value="21" style="ellipse;whiteSpace=wrap;html=1;aspect=fixed;" parent="1" vertex="1">
          <mxGeometry x="575" y="1905" width="70" height="70" as="geometry" />
        </mxCell>
        <mxCell id="OALl0PP9-j-6uH6hQlzI-129" style="edgeStyle=orthogonalEdgeStyle;rounded=0;orthogonalLoop=1;jettySize=auto;html=1;exitX=0.5;exitY=1;exitDx=0;exitDy=0;entryX=0.5;entryY=0;entryDx=0;entryDy=0;" parent="1" source="OALl0PP9-j-6uH6hQlzI-130" target="OALl0PP9-j-6uH6hQlzI-131" edge="1">
          <mxGeometry relative="1" as="geometry" />
        </mxCell>
        <mxCell id="OALl0PP9-j-6uH6hQlzI-130" value="22" style="ellipse;whiteSpace=wrap;html=1;aspect=fixed;" parent="1" vertex="1">
          <mxGeometry x="570" y="2000" width="80" height="80" as="geometry" />
        </mxCell>
        <mxCell id="OALl0PP9-j-6uH6hQlzI-131" value="23" style="ellipse;whiteSpace=wrap;html=1;aspect=fixed;" parent="1" vertex="1">
          <mxGeometry x="580" y="2105" width="70" height="70" as="geometry" />
        </mxCell>
        <mxCell id="OALl0PP9-j-6uH6hQlzI-132" value="количество раз равное количеству групп" style="text;html=1;align=center;verticalAlign=middle;resizable=0;points=[];autosize=1;strokeColor=none;fillColor=none;" parent="1" vertex="1">
          <mxGeometry x="405" y="2190" width="250" height="30" as="geometry" />
        </mxCell>
        <mxCell id="OALl0PP9-j-6uH6hQlzI-133" value="конец" style="rounded=0;whiteSpace=wrap;html=1;" parent="1" vertex="1">
          <mxGeometry x="70" y="1200" width="120" height="60" as="geometry" />
        </mxCell>
        <mxCell id="OALl0PP9-j-6uH6hQlzI-136" style="edgeStyle=orthogonalEdgeStyle;rounded=0;orthogonalLoop=1;jettySize=auto;html=1;entryX=0.5;entryY=0;entryDx=0;entryDy=0;" parent="1" source="OALl0PP9-j-6uH6hQlzI-134" target="OALl0PP9-j-6uH6hQlzI-92" edge="1">
          <mxGeometry relative="1" as="geometry" />
        </mxCell>
        <mxCell id="OALl0PP9-j-6uH6hQlzI-134" value="Если q3.size() &amp;lt; 0" style="text;html=1;align=center;verticalAlign=middle;resizable=0;points=[];autosize=1;strokeColor=none;fillColor=none;" parent="1" vertex="1">
          <mxGeometry x="510" y="1480" width="120" height="30" as="geometry" />
        </mxCell>
        <mxCell id="OALl0PP9-j-6uH6hQlzI-239" style="edgeStyle=orthogonalEdgeStyle;rounded=0;orthogonalLoop=1;jettySize=auto;html=1;exitX=1;exitY=0.5;exitDx=0;exitDy=0;entryX=0;entryY=0.5;entryDx=0;entryDy=0;" parent="1" source="OALl0PP9-j-6uH6hQlzI-202" target="OALl0PP9-j-6uH6hQlzI-219" edge="1">
          <mxGeometry relative="1" as="geometry" />
        </mxCell>
        <mxCell id="OALl0PP9-j-6uH6hQlzI-202" value="15" style="ellipse;whiteSpace=wrap;html=1;aspect=fixed;" parent="1" vertex="1">
          <mxGeometry x="520" y="1510" width="70" height="70" as="geometry" />
        </mxCell>
        <mxCell id="OALl0PP9-j-6uH6hQlzI-218" style="edgeStyle=orthogonalEdgeStyle;rounded=0;orthogonalLoop=1;jettySize=auto;html=1;exitX=1;exitY=0.5;exitDx=0;exitDy=0;entryX=0;entryY=0.5;entryDx=0;entryDy=0;" parent="1" source="OALl0PP9-j-6uH6hQlzI-219" target="OALl0PP9-j-6uH6hQlzI-221" edge="1">
          <mxGeometry relative="1" as="geometry" />
        </mxCell>
        <mxCell id="OALl0PP9-j-6uH6hQlzI-219" value="6" style="ellipse;whiteSpace=wrap;html=1;aspect=fixed;" parent="1" vertex="1">
          <mxGeometry x="120" y="1632" width="70" height="70" as="geometry" />
        </mxCell>
        <mxCell id="OALl0PP9-j-6uH6hQlzI-220" style="edgeStyle=orthogonalEdgeStyle;rounded=0;orthogonalLoop=1;jettySize=auto;html=1;exitX=1;exitY=0.5;exitDx=0;exitDy=0;entryX=0;entryY=0.5;entryDx=0;entryDy=0;" parent="1" source="OALl0PP9-j-6uH6hQlzI-221" target="OALl0PP9-j-6uH6hQlzI-223" edge="1">
          <mxGeometry relative="1" as="geometry" />
        </mxCell>
        <mxCell id="OALl0PP9-j-6uH6hQlzI-221" value="7" style="ellipse;whiteSpace=wrap;html=1;aspect=fixed;" parent="1" vertex="1">
          <mxGeometry x="230" y="1632" width="70" height="70" as="geometry" />
        </mxCell>
        <mxCell id="OALl0PP9-j-6uH6hQlzI-222" style="edgeStyle=orthogonalEdgeStyle;rounded=0;orthogonalLoop=1;jettySize=auto;html=1;exitX=1;exitY=0.5;exitDx=0;exitDy=0;entryX=0;entryY=0.5;entryDx=0;entryDy=0;" parent="1" source="OALl0PP9-j-6uH6hQlzI-223" target="OALl0PP9-j-6uH6hQlzI-225" edge="1">
          <mxGeometry relative="1" as="geometry" />
        </mxCell>
        <mxCell id="OALl0PP9-j-6uH6hQlzI-223" value="8" style="ellipse;whiteSpace=wrap;html=1;aspect=fixed;" parent="1" vertex="1">
          <mxGeometry x="320" y="1637" width="70" height="70" as="geometry" />
        </mxCell>
        <mxCell id="OALl0PP9-j-6uH6hQlzI-224" style="edgeStyle=orthogonalEdgeStyle;rounded=0;orthogonalLoop=1;jettySize=auto;html=1;exitX=1;exitY=0.5;exitDx=0;exitDy=0;entryX=0;entryY=0.5;entryDx=0;entryDy=0;" parent="1" source="OALl0PP9-j-6uH6hQlzI-225" target="OALl0PP9-j-6uH6hQlzI-227" edge="1">
          <mxGeometry relative="1" as="geometry" />
        </mxCell>
        <mxCell id="OALl0PP9-j-6uH6hQlzI-225" value="9&lt;span style=&quot;color: rgba(0, 0, 0, 0); font-family: monospace; font-size: 0px; text-align: start; text-wrap: nowrap;&quot;&gt;%3CmxGraphModel%3E%3Croot%3E%3CmxCell%20id%3D%220%22%2F%3E%3CmxCell%20id%3D%221%22%20parent%3D%220%22%2F%3E%3CmxCell%20id%3D%222%22%20value%3D%221%22%20style%3D%22ellipse%3BwhiteSpace%3Dwrap%3Bhtml%3D1%3Baspect%3Dfixed%3B%22%20vertex%3D%221%22%20parent%3D%221%22%3E%3CmxGeometry%20x%3D%2270%22%20y%3D%2250%22%20width%3D%2270%22%20height%3D%2270%22%20as%3D%22geometry%22%2F%3E%3C%2FmxCell%3E%3C%2Froot%3E%3C%2FmxGraphModel%3E&lt;/span&gt;" style="ellipse;whiteSpace=wrap;html=1;aspect=fixed;" parent="1" vertex="1">
          <mxGeometry x="410" y="1637" width="70" height="70" as="geometry" />
        </mxCell>
        <mxCell id="OALl0PP9-j-6uH6hQlzI-226" style="edgeStyle=orthogonalEdgeStyle;rounded=0;orthogonalLoop=1;jettySize=auto;html=1;exitX=1;exitY=0.5;exitDx=0;exitDy=0;entryX=0;entryY=0.5;entryDx=0;entryDy=0;" parent="1" source="OALl0PP9-j-6uH6hQlzI-227" target="OALl0PP9-j-6uH6hQlzI-229" edge="1">
          <mxGeometry relative="1" as="geometry" />
        </mxCell>
        <mxCell id="OALl0PP9-j-6uH6hQlzI-227" value="10" style="ellipse;whiteSpace=wrap;html=1;aspect=fixed;" parent="1" vertex="1">
          <mxGeometry x="500" y="1637" width="70" height="70" as="geometry" />
        </mxCell>
        <mxCell id="OALl0PP9-j-6uH6hQlzI-228" style="edgeStyle=orthogonalEdgeStyle;rounded=0;orthogonalLoop=1;jettySize=auto;html=1;exitX=1;exitY=0.5;exitDx=0;exitDy=0;entryX=0;entryY=0.5;entryDx=0;entryDy=0;" parent="1" source="OALl0PP9-j-6uH6hQlzI-229" target="OALl0PP9-j-6uH6hQlzI-231" edge="1">
          <mxGeometry relative="1" as="geometry" />
        </mxCell>
        <mxCell id="OALl0PP9-j-6uH6hQlzI-229" value="11" style="ellipse;whiteSpace=wrap;html=1;aspect=fixed;" parent="1" vertex="1">
          <mxGeometry x="590" y="1637" width="70" height="70" as="geometry" />
        </mxCell>
        <mxCell id="OALl0PP9-j-6uH6hQlzI-230" style="edgeStyle=orthogonalEdgeStyle;rounded=0;orthogonalLoop=1;jettySize=auto;html=1;exitX=1;exitY=0.5;exitDx=0;exitDy=0;entryX=0;entryY=0.5;entryDx=0;entryDy=0;" parent="1" source="OALl0PP9-j-6uH6hQlzI-231" target="OALl0PP9-j-6uH6hQlzI-233" edge="1">
          <mxGeometry relative="1" as="geometry" />
        </mxCell>
        <mxCell id="OALl0PP9-j-6uH6hQlzI-231" value="12" style="ellipse;whiteSpace=wrap;html=1;aspect=fixed;" parent="1" vertex="1">
          <mxGeometry x="680" y="1632" width="80" height="80" as="geometry" />
        </mxCell>
        <mxCell id="OALl0PP9-j-6uH6hQlzI-232" style="edgeStyle=orthogonalEdgeStyle;rounded=0;orthogonalLoop=1;jettySize=auto;html=1;exitX=1;exitY=0.5;exitDx=0;exitDy=0;" parent="1" source="OALl0PP9-j-6uH6hQlzI-233" target="OALl0PP9-j-6uH6hQlzI-235" edge="1">
          <mxGeometry relative="1" as="geometry" />
        </mxCell>
        <mxCell id="OALl0PP9-j-6uH6hQlzI-233" value="13" style="ellipse;whiteSpace=wrap;html=1;aspect=fixed;" parent="1" vertex="1">
          <mxGeometry x="255" y="1740" width="70" height="70" as="geometry" />
        </mxCell>
        <mxCell id="OALl0PP9-j-6uH6hQlzI-234" style="edgeStyle=orthogonalEdgeStyle;rounded=0;orthogonalLoop=1;jettySize=auto;html=1;exitX=1;exitY=0.5;exitDx=0;exitDy=0;entryX=0;entryY=0.5;entryDx=0;entryDy=0;" parent="1" source="OALl0PP9-j-6uH6hQlzI-235" target="OALl0PP9-j-6uH6hQlzI-100" edge="1">
          <mxGeometry relative="1" as="geometry">
            <mxPoint x="1020.0000000000177" y="1587" as="targetPoint" />
          </mxGeometry>
        </mxCell>
        <mxCell id="OALl0PP9-j-6uH6hQlzI-235" value="14" style="ellipse;whiteSpace=wrap;html=1;aspect=fixed;" parent="1" vertex="1">
          <mxGeometry x="355" y="1740" width="70" height="70" as="geometry" />
        </mxCell>
        <mxCell id="OALl0PP9-j-6uH6hQlzI-237" style="edgeStyle=orthogonalEdgeStyle;rounded=0;orthogonalLoop=1;jettySize=auto;html=1;" parent="1" source="OALl0PP9-j-6uH6hQlzI-238" target="OALl0PP9-j-6uH6hQlzI-229" edge="1">
          <mxGeometry relative="1" as="geometry" />
        </mxCell>
        <mxCell id="OALl0PP9-j-6uH6hQlzI-238" value="Если q3.size() &amp;gt; 0" style="text;html=1;align=center;verticalAlign=middle;resizable=0;points=[];autosize=1;strokeColor=none;fillColor=none;" parent="1" vertex="1">
          <mxGeometry x="690" y="1580" width="120" height="30" as="geometry" />
        </mxCell>
        <mxCell id="V9s32W_iXD5OiraXuP9U-2" value="&lt;font style=&quot;font-size: 40px;&quot;&gt;ОИ&lt;/font&gt;" style="text;html=1;align=center;verticalAlign=middle;resizable=0;points=[];autosize=1;strokeColor=none;fillColor=none;" vertex="1" parent="1">
          <mxGeometry x="685" y="40" width="80" height="60" as="geometry" />
        </mxCell>
      </root>
    </mxGraphModel>
  </diagram>
  <diagram id="dWhnUGGyPvXUjvDmSS_n" name="ИИ">
    <mxGraphModel dx="1363" dy="939" grid="1" gridSize="10" guides="1" tooltips="1" connect="1" arrows="1" fold="1" page="1" pageScale="1" pageWidth="827" pageHeight="1169" math="0" shadow="0">
      <root>
        <mxCell id="0" />
        <mxCell id="1" parent="0" />
        <mxCell id="7aMrUk9kKVwi-lCP4UPm-1" value="1" style="ellipse;whiteSpace=wrap;html=1;aspect=fixed;" parent="1" vertex="1">
          <mxGeometry x="40" y="20" width="70" height="70" as="geometry" />
        </mxCell>
        <mxCell id="7aMrUk9kKVwi-lCP4UPm-2" style="edgeStyle=orthogonalEdgeStyle;rounded=0;orthogonalLoop=1;jettySize=auto;html=1;exitX=0.5;exitY=1;exitDx=0;exitDy=0;" parent="1" source="7aMrUk9kKVwi-lCP4UPm-4" target="7aMrUk9kKVwi-lCP4UPm-7" edge="1">
          <mxGeometry relative="1" as="geometry" />
        </mxCell>
        <mxCell id="7aMrUk9kKVwi-lCP4UPm-3" value="t_beg" style="edgeLabel;html=1;align=center;verticalAlign=middle;resizable=0;points=[];" parent="7aMrUk9kKVwi-lCP4UPm-2" vertex="1" connectable="0">
          <mxGeometry x="-0.2885" y="2" relative="1" as="geometry">
            <mxPoint x="23" as="offset" />
          </mxGeometry>
        </mxCell>
        <mxCell id="7aMrUk9kKVwi-lCP4UPm-4" value="2" style="ellipse;whiteSpace=wrap;html=1;aspect=fixed;" parent="1" vertex="1">
          <mxGeometry x="270" y="70" width="80" height="80" as="geometry" />
        </mxCell>
        <mxCell id="7aMrUk9kKVwi-lCP4UPm-5" style="edgeStyle=orthogonalEdgeStyle;rounded=0;orthogonalLoop=1;jettySize=auto;html=1;exitX=0.5;exitY=1;exitDx=0;exitDy=0;entryX=0.5;entryY=0;entryDx=0;entryDy=0;" parent="1" source="7aMrUk9kKVwi-lCP4UPm-7" target="7aMrUk9kKVwi-lCP4UPm-8" edge="1">
          <mxGeometry relative="1" as="geometry" />
        </mxCell>
        <mxCell id="7aMrUk9kKVwi-lCP4UPm-6" value="filename" style="edgeLabel;html=1;align=center;verticalAlign=middle;resizable=0;points=[];" parent="7aMrUk9kKVwi-lCP4UPm-5" vertex="1" connectable="0">
          <mxGeometry x="-0.3033" y="1" relative="1" as="geometry">
            <mxPoint as="offset" />
          </mxGeometry>
        </mxCell>
        <mxCell id="7aMrUk9kKVwi-lCP4UPm-7" value="3" style="ellipse;whiteSpace=wrap;html=1;aspect=fixed;" parent="1" vertex="1">
          <mxGeometry x="275" y="180" width="70" height="70" as="geometry" />
        </mxCell>
        <mxCell id="7aMrUk9kKVwi-lCP4UPm-8" value="4" style="ellipse;whiteSpace=wrap;html=1;aspect=fixed;" parent="1" vertex="1">
          <mxGeometry x="275" y="300" width="70" height="70" as="geometry" />
        </mxCell>
        <mxCell id="7aMrUk9kKVwi-lCP4UPm-9" style="edgeStyle=orthogonalEdgeStyle;rounded=0;orthogonalLoop=1;jettySize=auto;html=1;exitX=1;exitY=0.5;exitDx=0;exitDy=0;" parent="1" source="7aMrUk9kKVwi-lCP4UPm-13" target="7aMrUk9kKVwi-lCP4UPm-14" edge="1">
          <mxGeometry relative="1" as="geometry" />
        </mxCell>
        <mxCell id="7aMrUk9kKVwi-lCP4UPm-10" value="get_elem&lt;div&gt;&lt;br&gt;&lt;/div&gt;" style="edgeLabel;html=1;align=center;verticalAlign=middle;resizable=0;points=[];" parent="7aMrUk9kKVwi-lCP4UPm-9" vertex="1" connectable="0">
          <mxGeometry x="-0.05" relative="1" as="geometry">
            <mxPoint y="-20" as="offset" />
          </mxGeometry>
        </mxCell>
        <mxCell id="7aMrUk9kKVwi-lCP4UPm-11" style="edgeStyle=orthogonalEdgeStyle;rounded=0;orthogonalLoop=1;jettySize=auto;html=1;exitX=0.5;exitY=1;exitDx=0;exitDy=0;entryX=0;entryY=0.5;entryDx=0;entryDy=0;" parent="1" source="7aMrUk9kKVwi-lCP4UPm-13" target="7aMrUk9kKVwi-lCP4UPm-33" edge="1">
          <mxGeometry relative="1" as="geometry" />
        </mxCell>
        <mxCell id="7aMrUk9kKVwi-lCP4UPm-12" value="get_elem" style="edgeLabel;html=1;align=center;verticalAlign=middle;resizable=0;points=[];" parent="7aMrUk9kKVwi-lCP4UPm-11" vertex="1" connectable="0">
          <mxGeometry x="0.602" y="1" relative="1" as="geometry">
            <mxPoint as="offset" />
          </mxGeometry>
        </mxCell>
        <mxCell id="7aMrUk9kKVwi-lCP4UPm-13" value="5" style="ellipse;whiteSpace=wrap;html=1;aspect=fixed;" parent="1" vertex="1">
          <mxGeometry x="465" y="130" width="70" height="70" as="geometry" />
        </mxCell>
        <mxCell id="7aMrUk9kKVwi-lCP4UPm-14" value="6" style="ellipse;whiteSpace=wrap;html=1;aspect=fixed;" parent="1" vertex="1">
          <mxGeometry x="585" y="130" width="70" height="70" as="geometry" />
        </mxCell>
        <mxCell id="7aMrUk9kKVwi-lCP4UPm-15" value="7" style="ellipse;whiteSpace=wrap;html=1;aspect=fixed;" parent="1" vertex="1">
          <mxGeometry x="695" y="130" width="70" height="70" as="geometry" />
        </mxCell>
        <mxCell id="7aMrUk9kKVwi-lCP4UPm-16" style="edgeStyle=orthogonalEdgeStyle;rounded=0;orthogonalLoop=1;jettySize=auto;html=1;exitX=1;exitY=0.5;exitDx=0;exitDy=0;entryX=0;entryY=0.5;entryDx=0;entryDy=0;" parent="1" source="7aMrUk9kKVwi-lCP4UPm-20" target="7aMrUk9kKVwi-lCP4UPm-23" edge="1">
          <mxGeometry relative="1" as="geometry" />
        </mxCell>
        <mxCell id="7aMrUk9kKVwi-lCP4UPm-17" value="t_beg" style="edgeLabel;html=1;align=center;verticalAlign=middle;resizable=0;points=[];" parent="7aMrUk9kKVwi-lCP4UPm-16" vertex="1" connectable="0">
          <mxGeometry x="-0.131" y="-2" relative="1" as="geometry">
            <mxPoint as="offset" />
          </mxGeometry>
        </mxCell>
        <mxCell id="7aMrUk9kKVwi-lCP4UPm-18" style="edgeStyle=orthogonalEdgeStyle;rounded=0;orthogonalLoop=1;jettySize=auto;html=1;exitX=0.5;exitY=0;exitDx=0;exitDy=0;entryX=0;entryY=0.5;entryDx=0;entryDy=0;" parent="1" source="7aMrUk9kKVwi-lCP4UPm-20" target="7aMrUk9kKVwi-lCP4UPm-60" edge="1">
          <mxGeometry relative="1" as="geometry" />
        </mxCell>
        <mxCell id="7aMrUk9kKVwi-lCP4UPm-19" value="t_beg&lt;div&gt;&lt;br&gt;&lt;/div&gt;" style="edgeLabel;html=1;align=center;verticalAlign=middle;resizable=0;points=[];" parent="7aMrUk9kKVwi-lCP4UPm-18" vertex="1" connectable="0">
          <mxGeometry x="0.8602" y="3" relative="1" as="geometry">
            <mxPoint as="offset" />
          </mxGeometry>
        </mxCell>
        <mxCell id="7aMrUk9kKVwi-lCP4UPm-20" value="8" style="ellipse;whiteSpace=wrap;html=1;aspect=fixed;" parent="1" vertex="1">
          <mxGeometry x="151" y="975" width="70" height="70" as="geometry" />
        </mxCell>
        <mxCell id="7aMrUk9kKVwi-lCP4UPm-21" style="edgeStyle=orthogonalEdgeStyle;rounded=0;orthogonalLoop=1;jettySize=auto;html=1;exitX=1;exitY=0.5;exitDx=0;exitDy=0;entryX=0;entryY=0.5;entryDx=0;entryDy=0;" parent="1" source="7aMrUk9kKVwi-lCP4UPm-23" target="7aMrUk9kKVwi-lCP4UPm-24" edge="1">
          <mxGeometry relative="1" as="geometry" />
        </mxCell>
        <mxCell id="7aMrUk9kKVwi-lCP4UPm-22" value="filename" style="edgeLabel;html=1;align=center;verticalAlign=middle;resizable=0;points=[];" parent="7aMrUk9kKVwi-lCP4UPm-21" vertex="1" connectable="0">
          <mxGeometry x="0.2692" y="-2" relative="1" as="geometry">
            <mxPoint as="offset" />
          </mxGeometry>
        </mxCell>
        <mxCell id="7aMrUk9kKVwi-lCP4UPm-23" value="9&lt;span style=&quot;color: rgba(0, 0, 0, 0); font-family: monospace; font-size: 0px; text-align: start; text-wrap: nowrap;&quot;&gt;%3CmxGraphModel%3E%3Croot%3E%3CmxCell%20id%3D%220%22%2F%3E%3CmxCell%20id%3D%221%22%20parent%3D%220%22%2F%3E%3CmxCell%20id%3D%222%22%20value%3D%221%22%20style%3D%22ellipse%3BwhiteSpace%3Dwrap%3Bhtml%3D1%3Baspect%3Dfixed%3B%22%20vertex%3D%221%22%20parent%3D%221%22%3E%3CmxGeometry%20x%3D%2270%22%20y%3D%2250%22%20width%3D%2270%22%20height%3D%2270%22%20as%3D%22geometry%22%2F%3E%3C%2FmxCell%3E%3C%2Froot%3E%3C%2FmxGraphModel%3E&lt;/span&gt;" style="ellipse;whiteSpace=wrap;html=1;aspect=fixed;" parent="1" vertex="1">
          <mxGeometry x="291" y="975" width="70" height="70" as="geometry" />
        </mxCell>
        <mxCell id="7aMrUk9kKVwi-lCP4UPm-24" value="10" style="ellipse;whiteSpace=wrap;html=1;aspect=fixed;" parent="1" vertex="1">
          <mxGeometry x="421" y="980" width="70" height="70" as="geometry" />
        </mxCell>
        <mxCell id="7aMrUk9kKVwi-lCP4UPm-25" value="11" style="ellipse;whiteSpace=wrap;html=1;aspect=fixed;" parent="1" vertex="1">
          <mxGeometry x="395" y="440" width="70" height="70" as="geometry" />
        </mxCell>
        <mxCell id="7aMrUk9kKVwi-lCP4UPm-26" style="edgeStyle=orthogonalEdgeStyle;rounded=0;orthogonalLoop=1;jettySize=auto;html=1;exitX=0.5;exitY=1;exitDx=0;exitDy=0;entryX=0.5;entryY=0;entryDx=0;entryDy=0;" parent="1" source="7aMrUk9kKVwi-lCP4UPm-67" target="7aMrUk9kKVwi-lCP4UPm-32" edge="1">
          <mxGeometry relative="1" as="geometry">
            <Array as="points">
              <mxPoint x="620" y="410" />
              <mxPoint x="620" y="445" />
            </Array>
          </mxGeometry>
        </mxCell>
        <mxCell id="7aMrUk9kKVwi-lCP4UPm-27" style="edgeStyle=orthogonalEdgeStyle;rounded=0;orthogonalLoop=1;jettySize=auto;html=1;exitX=0.5;exitY=1;exitDx=0;exitDy=0;entryX=0;entryY=0.5;entryDx=0;entryDy=0;" parent="1" source="7aMrUk9kKVwi-lCP4UPm-31" target="7aMrUk9kKVwi-lCP4UPm-48" edge="1">
          <mxGeometry relative="1" as="geometry" />
        </mxCell>
        <mxCell id="7aMrUk9kKVwi-lCP4UPm-28" value="ind_group" style="edgeLabel;html=1;align=center;verticalAlign=middle;resizable=0;points=[];" parent="7aMrUk9kKVwi-lCP4UPm-27" vertex="1" connectable="0">
          <mxGeometry x="0.1078" y="1" relative="1" as="geometry">
            <mxPoint as="offset" />
          </mxGeometry>
        </mxCell>
        <mxCell id="7aMrUk9kKVwi-lCP4UPm-29" style="edgeStyle=orthogonalEdgeStyle;rounded=0;orthogonalLoop=1;jettySize=auto;html=1;exitX=0.5;exitY=1;exitDx=0;exitDy=0;entryX=0;entryY=0.5;entryDx=0;entryDy=0;" parent="1" source="7aMrUk9kKVwi-lCP4UPm-31" target="7aMrUk9kKVwi-lCP4UPm-51" edge="1">
          <mxGeometry relative="1" as="geometry" />
        </mxCell>
        <mxCell id="7aMrUk9kKVwi-lCP4UPm-30" value="ind_group" style="edgeLabel;html=1;align=center;verticalAlign=middle;resizable=0;points=[];" parent="7aMrUk9kKVwi-lCP4UPm-29" vertex="1" connectable="0">
          <mxGeometry x="0.5309" y="-1" relative="1" as="geometry">
            <mxPoint x="-19" y="-103" as="offset" />
          </mxGeometry>
        </mxCell>
        <mxCell id="7aMrUk9kKVwi-lCP4UPm-31" value="12" style="ellipse;whiteSpace=wrap;html=1;aspect=fixed;" parent="1" vertex="1">
          <mxGeometry x="480" y="440" width="80" height="80" as="geometry" />
        </mxCell>
        <mxCell id="7aMrUk9kKVwi-lCP4UPm-32" value="13" style="ellipse;whiteSpace=wrap;html=1;aspect=fixed;" parent="1" vertex="1">
          <mxGeometry x="590" y="450" width="70" height="70" as="geometry" />
        </mxCell>
        <mxCell id="7aMrUk9kKVwi-lCP4UPm-33" value="14" style="ellipse;whiteSpace=wrap;html=1;aspect=fixed;" parent="1" vertex="1">
          <mxGeometry x="595" y="210" width="70" height="70" as="geometry" />
        </mxCell>
        <mxCell id="7aMrUk9kKVwi-lCP4UPm-34" value="15" style="ellipse;whiteSpace=wrap;html=1;aspect=fixed;" parent="1" vertex="1">
          <mxGeometry x="695" y="215" width="70" height="70" as="geometry" />
        </mxCell>
        <mxCell id="7aMrUk9kKVwi-lCP4UPm-35" style="edgeStyle=orthogonalEdgeStyle;rounded=0;orthogonalLoop=1;jettySize=auto;html=1;exitX=0.5;exitY=1;exitDx=0;exitDy=0;entryX=0.5;entryY=0;entryDx=0;entryDy=0;" parent="1" source="7aMrUk9kKVwi-lCP4UPm-37" target="7aMrUk9kKVwi-lCP4UPm-44" edge="1">
          <mxGeometry relative="1" as="geometry" />
        </mxCell>
        <mxCell id="7aMrUk9kKVwi-lCP4UPm-36" value="filename" style="edgeLabel;html=1;align=center;verticalAlign=middle;resizable=0;points=[];" parent="7aMrUk9kKVwi-lCP4UPm-35" vertex="1" connectable="0">
          <mxGeometry x="-0.0265" y="4" relative="1" as="geometry">
            <mxPoint as="offset" />
          </mxGeometry>
        </mxCell>
        <mxCell id="7aMrUk9kKVwi-lCP4UPm-37" value="16" style="ellipse;whiteSpace=wrap;html=1;aspect=fixed;" parent="1" vertex="1">
          <mxGeometry x="91" y="660" width="70" height="70" as="geometry" />
        </mxCell>
        <mxCell id="7aMrUk9kKVwi-lCP4UPm-38" style="edgeStyle=orthogonalEdgeStyle;rounded=0;orthogonalLoop=1;jettySize=auto;html=1;exitX=0.5;exitY=1;exitDx=0;exitDy=0;entryX=0.5;entryY=0;entryDx=0;entryDy=0;" parent="1" source="7aMrUk9kKVwi-lCP4UPm-44" target="7aMrUk9kKVwi-lCP4UPm-45" edge="1">
          <mxGeometry relative="1" as="geometry" />
        </mxCell>
        <mxCell id="7aMrUk9kKVwi-lCP4UPm-39" value="f" style="edgeLabel;html=1;align=center;verticalAlign=middle;resizable=0;points=[];" parent="7aMrUk9kKVwi-lCP4UPm-38" vertex="1" connectable="0">
          <mxGeometry x="-0.3333" y="-3" relative="1" as="geometry">
            <mxPoint as="offset" />
          </mxGeometry>
        </mxCell>
        <mxCell id="7aMrUk9kKVwi-lCP4UPm-40" style="edgeStyle=orthogonalEdgeStyle;rounded=0;orthogonalLoop=1;jettySize=auto;html=1;exitX=0;exitY=0.5;exitDx=0;exitDy=0;entryX=1;entryY=0.5;entryDx=0;entryDy=0;" parent="1" source="7aMrUk9kKVwi-lCP4UPm-44" target="7aMrUk9kKVwi-lCP4UPm-55" edge="1">
          <mxGeometry relative="1" as="geometry">
            <Array as="points">
              <mxPoint x="71" y="805" />
              <mxPoint x="71" y="1140" />
              <mxPoint x="660" y="1140" />
              <mxPoint x="660" y="1050" />
            </Array>
          </mxGeometry>
        </mxCell>
        <mxCell id="7aMrUk9kKVwi-lCP4UPm-41" value="f" style="edgeLabel;html=1;align=center;verticalAlign=middle;resizable=0;points=[];" parent="7aMrUk9kKVwi-lCP4UPm-40" vertex="1" connectable="0">
          <mxGeometry x="0.1695" y="-3" relative="1" as="geometry">
            <mxPoint y="-1" as="offset" />
          </mxGeometry>
        </mxCell>
        <mxCell id="7aMrUk9kKVwi-lCP4UPm-42" style="edgeStyle=orthogonalEdgeStyle;rounded=0;orthogonalLoop=1;jettySize=auto;html=1;exitX=1;exitY=0.5;exitDx=0;exitDy=0;entryX=0;entryY=0.5;entryDx=0;entryDy=0;" parent="1" source="7aMrUk9kKVwi-lCP4UPm-44" target="7aMrUk9kKVwi-lCP4UPm-58" edge="1">
          <mxGeometry relative="1" as="geometry" />
        </mxCell>
        <mxCell id="7aMrUk9kKVwi-lCP4UPm-43" value="f" style="edgeLabel;html=1;align=center;verticalAlign=middle;resizable=0;points=[];" parent="7aMrUk9kKVwi-lCP4UPm-42" vertex="1" connectable="0">
          <mxGeometry x="-0.0873" y="-1" relative="1" as="geometry">
            <mxPoint x="-1" as="offset" />
          </mxGeometry>
        </mxCell>
        <mxCell id="7aMrUk9kKVwi-lCP4UPm-44" value="17" style="ellipse;whiteSpace=wrap;html=1;aspect=fixed;" parent="1" vertex="1">
          <mxGeometry x="91" y="770" width="70" height="70" as="geometry" />
        </mxCell>
        <mxCell id="7aMrUk9kKVwi-lCP4UPm-45" value="18" style="ellipse;whiteSpace=wrap;html=1;aspect=fixed;" parent="1" vertex="1">
          <mxGeometry x="91" y="890" width="70" height="70" as="geometry" />
        </mxCell>
        <mxCell id="7aMrUk9kKVwi-lCP4UPm-46" style="edgeStyle=orthogonalEdgeStyle;rounded=0;orthogonalLoop=1;jettySize=auto;html=1;exitX=0.5;exitY=1;exitDx=0;exitDy=0;entryX=0.5;entryY=0;entryDx=0;entryDy=0;" parent="1" source="7aMrUk9kKVwi-lCP4UPm-48" target="7aMrUk9kKVwi-lCP4UPm-50" edge="1">
          <mxGeometry relative="1" as="geometry" />
        </mxCell>
        <mxCell id="7aMrUk9kKVwi-lCP4UPm-47" value="ssum" style="edgeLabel;html=1;align=center;verticalAlign=middle;resizable=0;points=[];" parent="7aMrUk9kKVwi-lCP4UPm-46" vertex="1" connectable="0">
          <mxGeometry x="-0.0101" y="-3" relative="1" as="geometry">
            <mxPoint as="offset" />
          </mxGeometry>
        </mxCell>
        <mxCell id="7aMrUk9kKVwi-lCP4UPm-48" value="19&lt;span style=&quot;color: rgba(0, 0, 0, 0); font-family: monospace; font-size: 0px; text-align: start; text-wrap: nowrap;&quot;&gt;%3CmxGraphModel%3E%3Croot%3E%3CmxCell%20id%3D%220%22%2F%3E%3CmxCell%20id%3D%221%22%20parent%3D%220%22%2F%3E%3CmxCell%20id%3D%222%22%20value%3D%221%22%20style%3D%22ellipse%3BwhiteSpace%3Dwrap%3Bhtml%3D1%3Baspect%3Dfixed%3B%22%20vertex%3D%221%22%20parent%3D%221%22%3E%3CmxGeometry%20x%3D%2270%22%20y%3D%2250%22%20width%3D%2270%22%20height%3D%2270%22%20as%3D%22geometry%22%2F%3E%3C%2FmxCell%3E%3C%2Froot%3E%3C%2FmxGraphModel%3E&lt;/span&gt;" style="ellipse;whiteSpace=wrap;html=1;aspect=fixed;" parent="1" vertex="1">
          <mxGeometry x="580" y="535" width="70" height="70" as="geometry" />
        </mxCell>
        <mxCell id="7aMrUk9kKVwi-lCP4UPm-49" style="edgeStyle=orthogonalEdgeStyle;rounded=0;orthogonalLoop=1;jettySize=auto;html=1;exitX=0.5;exitY=1;exitDx=0;exitDy=0;entryX=0.5;entryY=0;entryDx=0;entryDy=0;" parent="1" source="7aMrUk9kKVwi-lCP4UPm-50" target="7aMrUk9kKVwi-lCP4UPm-51" edge="1">
          <mxGeometry relative="1" as="geometry" />
        </mxCell>
        <mxCell id="7aMrUk9kKVwi-lCP4UPm-50" value="2&lt;span style=&quot;background-color: initial;&quot;&gt;0&lt;/span&gt;" style="ellipse;whiteSpace=wrap;html=1;aspect=fixed;" parent="1" vertex="1">
          <mxGeometry x="580" y="655" width="70" height="70" as="geometry" />
        </mxCell>
        <mxCell id="7aMrUk9kKVwi-lCP4UPm-51" value="21" style="ellipse;whiteSpace=wrap;html=1;aspect=fixed;" parent="1" vertex="1">
          <mxGeometry x="570" y="795" width="70" height="70" as="geometry" />
        </mxCell>
        <mxCell id="7aMrUk9kKVwi-lCP4UPm-52" style="edgeStyle=orthogonalEdgeStyle;rounded=0;orthogonalLoop=1;jettySize=auto;html=1;exitX=0.5;exitY=1;exitDx=0;exitDy=0;entryX=0.5;entryY=0;entryDx=0;entryDy=0;" parent="1" source="7aMrUk9kKVwi-lCP4UPm-54" target="7aMrUk9kKVwi-lCP4UPm-55" edge="1">
          <mxGeometry relative="1" as="geometry" />
        </mxCell>
        <mxCell id="7aMrUk9kKVwi-lCP4UPm-53" value="str" style="edgeLabel;html=1;align=center;verticalAlign=middle;resizable=0;points=[];" parent="7aMrUk9kKVwi-lCP4UPm-52" vertex="1" connectable="0">
          <mxGeometry x="-0.037" relative="1" as="geometry">
            <mxPoint y="-1" as="offset" />
          </mxGeometry>
        </mxCell>
        <mxCell id="7aMrUk9kKVwi-lCP4UPm-54" value="22" style="ellipse;whiteSpace=wrap;html=1;aspect=fixed;" parent="1" vertex="1">
          <mxGeometry x="565" y="890" width="80" height="80" as="geometry" />
        </mxCell>
        <mxCell id="7aMrUk9kKVwi-lCP4UPm-55" value="23" style="ellipse;whiteSpace=wrap;html=1;aspect=fixed;" parent="1" vertex="1">
          <mxGeometry x="570" y="1015" width="70" height="70" as="geometry" />
        </mxCell>
        <mxCell id="7aMrUk9kKVwi-lCP4UPm-56" style="edgeStyle=orthogonalEdgeStyle;rounded=0;orthogonalLoop=1;jettySize=auto;html=1;exitX=0.5;exitY=1;exitDx=0;exitDy=0;" parent="1" source="7aMrUk9kKVwi-lCP4UPm-58" target="7aMrUk9kKVwi-lCP4UPm-60" edge="1">
          <mxGeometry relative="1" as="geometry" />
        </mxCell>
        <mxCell id="7aMrUk9kKVwi-lCP4UPm-57" value="t_end" style="edgeLabel;html=1;align=center;verticalAlign=middle;resizable=0;points=[];" parent="7aMrUk9kKVwi-lCP4UPm-56" vertex="1" connectable="0">
          <mxGeometry x="-0.1556" y="-1" relative="1" as="geometry">
            <mxPoint as="offset" />
          </mxGeometry>
        </mxCell>
        <mxCell id="7aMrUk9kKVwi-lCP4UPm-58" value="24" style="ellipse;whiteSpace=wrap;html=1;aspect=fixed;" parent="1" vertex="1">
          <mxGeometry x="241" y="775" width="70" height="70" as="geometry" />
        </mxCell>
        <mxCell id="7aMrUk9kKVwi-lCP4UPm-59" style="edgeStyle=orthogonalEdgeStyle;rounded=0;orthogonalLoop=1;jettySize=auto;html=1;exitX=1;exitY=0.5;exitDx=0;exitDy=0;entryX=0;entryY=0.5;entryDx=0;entryDy=0;" parent="1" source="7aMrUk9kKVwi-lCP4UPm-60" target="7aMrUk9kKVwi-lCP4UPm-62" edge="1">
          <mxGeometry relative="1" as="geometry" />
        </mxCell>
        <mxCell id="7aMrUk9kKVwi-lCP4UPm-60" value="26" style="ellipse;whiteSpace=wrap;html=1;aspect=fixed;" parent="1" vertex="1">
          <mxGeometry x="241" y="885" width="70" height="70" as="geometry" />
        </mxCell>
        <mxCell id="7aMrUk9kKVwi-lCP4UPm-61" value="25" style="ellipse;whiteSpace=wrap;html=1;aspect=fixed;" parent="1" vertex="1">
          <mxGeometry x="335" y="775" width="70" height="70" as="geometry" />
        </mxCell>
        <mxCell id="7aMrUk9kKVwi-lCP4UPm-62" value="27" style="ellipse;whiteSpace=wrap;html=1;aspect=fixed;" parent="1" vertex="1">
          <mxGeometry x="361" y="885" width="70" height="70" as="geometry" />
        </mxCell>
        <mxCell id="7aMrUk9kKVwi-lCP4UPm-63" style="edgeStyle=orthogonalEdgeStyle;rounded=0;orthogonalLoop=1;jettySize=auto;html=1;exitX=0.5;exitY=1;exitDx=0;exitDy=0;entryX=0.5;entryY=0;entryDx=0;entryDy=0;" parent="1" source="7aMrUk9kKVwi-lCP4UPm-1" target="7aMrUk9kKVwi-lCP4UPm-70" edge="1">
          <mxGeometry relative="1" as="geometry" />
        </mxCell>
        <mxCell id="7aMrUk9kKVwi-lCP4UPm-64" value="k" style="edgeLabel;html=1;align=center;verticalAlign=middle;resizable=0;points=[];" parent="7aMrUk9kKVwi-lCP4UPm-63" vertex="1" connectable="0">
          <mxGeometry x="-0.1251" y="2" relative="1" as="geometry">
            <mxPoint as="offset" />
          </mxGeometry>
        </mxCell>
        <mxCell id="7aMrUk9kKVwi-lCP4UPm-65" style="edgeStyle=orthogonalEdgeStyle;rounded=0;orthogonalLoop=1;jettySize=auto;html=1;exitX=0.5;exitY=1;exitDx=0;exitDy=0;entryX=0.5;entryY=0;entryDx=0;entryDy=0;" parent="1" source="7aMrUk9kKVwi-lCP4UPm-67" target="7aMrUk9kKVwi-lCP4UPm-25" edge="1">
          <mxGeometry relative="1" as="geometry" />
        </mxCell>
        <mxCell id="7aMrUk9kKVwi-lCP4UPm-66" style="edgeStyle=orthogonalEdgeStyle;rounded=0;orthogonalLoop=1;jettySize=auto;html=1;exitX=0.5;exitY=1;exitDx=0;exitDy=0;entryX=0.5;entryY=0;entryDx=0;entryDy=0;" parent="1" source="7aMrUk9kKVwi-lCP4UPm-67" target="7aMrUk9kKVwi-lCP4UPm-31" edge="1">
          <mxGeometry relative="1" as="geometry" />
        </mxCell>
        <mxCell id="7aMrUk9kKVwi-lCP4UPm-67" value="q3 переменная" style="rounded=0;whiteSpace=wrap;html=1;" parent="1" vertex="1">
          <mxGeometry x="370" y="350" width="120" height="60" as="geometry" />
        </mxCell>
        <mxCell id="7aMrUk9kKVwi-lCP4UPm-68" style="edgeStyle=orthogonalEdgeStyle;rounded=0;orthogonalLoop=1;jettySize=auto;html=1;exitX=0.5;exitY=1;exitDx=0;exitDy=0;entryX=1;entryY=0.5;entryDx=0;entryDy=0;" parent="1" source="7aMrUk9kKVwi-lCP4UPm-51" target="7aMrUk9kKVwi-lCP4UPm-51" edge="1">
          <mxGeometry relative="1" as="geometry" />
        </mxCell>
        <mxCell id="7aMrUk9kKVwi-lCP4UPm-69" value="p" style="edgeLabel;html=1;align=center;verticalAlign=middle;resizable=0;points=[];" parent="7aMrUk9kKVwi-lCP4UPm-68" vertex="1" connectable="0">
          <mxGeometry x="0.0593" y="1" relative="1" as="geometry">
            <mxPoint y="1" as="offset" />
          </mxGeometry>
        </mxCell>
        <mxCell id="7aMrUk9kKVwi-lCP4UPm-70" value="1" style="ellipse;whiteSpace=wrap;html=1;aspect=fixed;" parent="1" vertex="1">
          <mxGeometry x="40" y="140" width="70" height="70" as="geometry" />
        </mxCell>
        <mxCell id="7aMrUk9kKVwi-lCP4UPm-71" style="edgeStyle=orthogonalEdgeStyle;rounded=0;orthogonalLoop=1;jettySize=auto;html=1;exitX=0.5;exitY=1;exitDx=0;exitDy=0;entryX=0.5;entryY=0;entryDx=0;entryDy=0;" parent="1" target="7aMrUk9kKVwi-lCP4UPm-73" edge="1">
          <mxGeometry relative="1" as="geometry">
            <mxPoint x="75" y="210" as="sourcePoint" />
          </mxGeometry>
        </mxCell>
        <mxCell id="7aMrUk9kKVwi-lCP4UPm-72" value="k" style="edgeLabel;html=1;align=center;verticalAlign=middle;resizable=0;points=[];" parent="7aMrUk9kKVwi-lCP4UPm-71" vertex="1" connectable="0">
          <mxGeometry x="-0.1251" y="2" relative="1" as="geometry">
            <mxPoint as="offset" />
          </mxGeometry>
        </mxCell>
        <mxCell id="7aMrUk9kKVwi-lCP4UPm-73" value="1" style="ellipse;whiteSpace=wrap;html=1;aspect=fixed;" parent="1" vertex="1">
          <mxGeometry x="40" y="260" width="70" height="70" as="geometry" />
        </mxCell>
        <mxCell id="7aMrUk9kKVwi-lCP4UPm-78" style="edgeStyle=orthogonalEdgeStyle;rounded=0;orthogonalLoop=1;jettySize=auto;html=1;exitX=0.5;exitY=1;exitDx=0;exitDy=0;entryX=0.5;entryY=0;entryDx=0;entryDy=0;" parent="1" edge="1">
          <mxGeometry relative="1" as="geometry">
            <mxPoint x="75" y="380" as="sourcePoint" />
            <mxPoint x="75" y="430" as="targetPoint" />
          </mxGeometry>
        </mxCell>
        <mxCell id="7aMrUk9kKVwi-lCP4UPm-79" value="k" style="edgeLabel;html=1;align=center;verticalAlign=middle;resizable=0;points=[];" parent="7aMrUk9kKVwi-lCP4UPm-78" vertex="1" connectable="0">
          <mxGeometry x="-0.1251" y="2" relative="1" as="geometry">
            <mxPoint as="offset" />
          </mxGeometry>
        </mxCell>
        <mxCell id="7aMrUk9kKVwi-lCP4UPm-80" value="1" style="ellipse;whiteSpace=wrap;html=1;aspect=fixed;" parent="1" vertex="1">
          <mxGeometry x="40" y="430" width="70" height="70" as="geometry" />
        </mxCell>
        <mxCell id="4o7pqR414OTJlHq4-CsH-1" value="Повторяется COUNT_PARTS" style="edgeLabel;html=1;align=center;verticalAlign=middle;resizable=0;points=[];" vertex="1" connectable="0" parent="1">
          <mxGeometry x="91" y="354.99712819080287" as="geometry" />
        </mxCell>
        <mxCell id="4o7pqR414OTJlHq4-CsH-3" value="&lt;span style=&quot;background-color: rgb(255, 255, 255); font-size: 13px;&quot;&gt;Все остальное повторяется COUNT_PARTS, без передачи информации внутри цикла&lt;/span&gt;" style="text;html=1;align=center;verticalAlign=middle;resizable=0;points=[];autosize=1;strokeColor=none;fillColor=none;" vertex="1" parent="1">
          <mxGeometry x="250" y="20" width="540" height="30" as="geometry" />
        </mxCell>
        <mxCell id="YKqPVYk-wj2XiUn96N3H-1" value="&lt;font style=&quot;font-size: 40px;&quot;&gt;ИИ&lt;/font&gt;" style="text;html=1;align=center;verticalAlign=middle;resizable=0;points=[];autosize=1;strokeColor=none;fillColor=none;" vertex="1" parent="1">
          <mxGeometry x="145" y="20" width="80" height="60" as="geometry" />
        </mxCell>
      </root>
    </mxGraphModel>
  </diagram>
</mxfile>
